M48
; DRILL file {KiCad (5.1.4-0-10_14)} date Saturday, May 02, 2020 at 08:11:05 PM
; FORMAT={-:-/ absolute / inch / decimal}
; #@! TF.CreationDate,2020-05-02T20:11:05-07:00
; #@! TF.GenerationSoftware,Kicad,Pcbnew,(5.1.4-0-10_14)
; #@! TF.FileFunction,Plated,1,2,PTH
FMAT,2
INCH
T1C0.0157
T2C0.0197
T3C0.0394
T4C0.1378
%
G90
G05
T1
X1.0835Y-3.75
X1.0902Y-1.15
X1.0909Y-1.8976
X1.0909Y-2.6476
X1.0909Y-3.3976
X1.0984Y-0.9114
X1.1579Y-1.2657
X1.1579Y-2.0157
X1.1579Y-2.7657
X1.1579Y-3.5157
X1.1783Y-1.5217
X1.1783Y-1.6398
X1.1898Y-2.2815
X1.1898Y-2.3996
X1.2213Y-3.75
X1.224Y-3.0185
X1.224Y-3.1366
X1.2362Y-0.9114
X1.3161Y-1.5217
X1.3161Y-1.6398
X1.3276Y-2.2815
X1.3276Y-2.3996
X1.3591Y-3.75
X1.3618Y-3.0185
X1.3618Y-3.1366
X1.374Y-0.9114
X1.4539Y-1.5217
X1.4539Y-1.6398
X1.4654Y-2.2815
X1.4654Y-2.3996
X1.4969Y-3.75
X1.4996Y-3.0185
X1.4996Y-3.1366
X1.5118Y-0.9114
X1.5917Y-1.5217
X1.5917Y-1.6398
X1.6031Y-2.2815
X1.6031Y-2.3996
X1.6346Y-3.75
X1.6374Y-3.0185
X1.6374Y-3.1366
X1.6496Y-0.9114
X1.7295Y-1.5217
X1.7295Y-1.6398
X1.7409Y-2.2815
X1.7409Y-2.3996
X1.7724Y-3.75
X1.7752Y-3.0185
X1.7752Y-3.1366
X1.7776Y-1.15
X1.7783Y-1.8976
X1.7783Y-2.6476
X1.7783Y-3.3976
X1.7874Y-0.9114
X1.8453Y-1.2657
X1.8453Y-2.0157
X1.8453Y-2.7657
X1.8453Y-3.5157
X1.8673Y-1.5217
X1.8673Y-1.6398
X1.8787Y-2.2815
X1.8787Y-2.3996
X1.9102Y-3.75
X1.913Y-3.0185
X1.913Y-3.1366
X1.9252Y-0.9114
X2.0051Y-1.5217
X2.0051Y-1.6398
X2.0165Y-2.2815
X2.0165Y-2.3996
X2.048Y-3.75
X2.0508Y-3.0185
X2.0508Y-3.1366
X2.063Y-0.9114
X2.1429Y-1.5217
X2.1429Y-1.6398
X2.1543Y-2.2815
X2.1543Y-2.3996
X2.1858Y-3.75
X2.1886Y-3.0185
X2.1886Y-3.1366
X2.2008Y-0.9114
X2.2807Y-1.5217
X2.2807Y-1.6398
X2.2921Y-2.2815
X2.2921Y-2.3996
X2.3236Y-3.75
X2.3264Y-3.0185
X2.3264Y-3.1366
X2.3386Y-0.9114
X2.4185Y-1.5217
X2.4185Y-1.6398
X2.4299Y-2.2815
X2.4299Y-2.3996
X2.4614Y-3.75
X2.4642Y-3.0185
X2.4642Y-3.1366
X2.465Y-1.15
X2.4657Y-1.8976
X2.4657Y-2.6476
X2.4657Y-3.3976
X2.4764Y-0.9114
X2.5327Y-1.2657
X2.5327Y-2.0157
X2.5327Y-2.7657
X2.5327Y-3.5157
X2.5563Y-1.5217
X2.5563Y-1.6398
X2.5677Y-2.2815
X2.5677Y-2.3996
X2.5992Y-3.75
X2.602Y-3.0185
X2.602Y-3.1366
X2.6142Y-0.9114
X2.6941Y-1.5217
X2.6941Y-1.6398
X2.7055Y-2.2815
X2.7055Y-2.3996
X2.737Y-3.75
X2.7398Y-3.0185
X2.7398Y-3.1366
X2.752Y-0.9114
X2.8319Y-1.5217
X2.8319Y-1.6398
X2.8433Y-2.2815
X2.8433Y-2.3996
X2.8748Y-3.75
X2.8776Y-3.0185
X2.8776Y-3.1366
X2.8898Y-0.9114
X2.9697Y-1.5217
X2.9697Y-1.6398
X2.9811Y-2.2815
X2.9811Y-2.3996
X3.0126Y-3.75
X3.0154Y-3.0185
X3.0154Y-3.1366
X3.0276Y-0.9114
X3.1075Y-1.5217
X3.1075Y-1.6398
X3.1189Y-2.2815
X3.1189Y-2.3996
X3.1504Y-3.75
X3.1524Y-1.15
X3.1531Y-1.8976
X3.1531Y-2.6476
X3.1531Y-3.0185
X3.1531Y-3.1366
X3.1531Y-3.3976
X3.1654Y-0.9114
X3.2201Y-1.2657
X3.2201Y-2.0157
X3.2201Y-2.7657
X3.2201Y-3.5157
X3.2453Y-1.5217
X3.2453Y-1.6398
X3.2567Y-2.2815
X3.2567Y-2.3996
X3.2882Y-3.75
X3.2909Y-3.0185
X3.2909Y-3.1366
X3.3031Y-0.9114
X3.3831Y-1.5217
X3.3831Y-1.6398
X3.3945Y-2.2815
X3.3945Y-2.3996
X3.426Y-3.75
X3.4287Y-3.0185
X3.4287Y-3.1366
X3.4409Y-0.9114
X3.5209Y-1.5217
X3.5209Y-1.6398
X3.5323Y-2.2815
X3.5323Y-2.3996
X3.5638Y-3.75
X3.5665Y-3.0185
X3.5665Y-3.1366
X3.5787Y-0.9114
X3.6587Y-1.5217
X3.6587Y-1.6398
X3.6701Y-2.2815
X3.6701Y-2.3996
X3.7016Y-3.75
X3.7043Y-3.0185
X3.7043Y-3.1366
X3.7165Y-0.9114
X3.7965Y-1.5217
X3.7965Y-1.6398
X3.8079Y-2.2815
X3.8079Y-2.3996
X3.8394Y-3.75
X3.8398Y-1.15
X3.8406Y-1.8976
X3.8406Y-2.6476
X3.8406Y-3.3976
X3.8421Y-3.0185
X3.8421Y-3.1366
X3.8543Y-0.9114
X3.9075Y-1.2657
X3.9075Y-2.0157
X3.9075Y-2.7657
X3.9075Y-3.5157
X3.9343Y-1.5217
X3.9343Y-1.6398
X3.9457Y-2.2815
X3.9457Y-2.3996
X3.9772Y-3.75
X3.9799Y-3.0185
X3.9799Y-3.1366
X3.9921Y-0.9114
X4.072Y-1.5217
X4.072Y-1.6398
X4.0835Y-2.2815
X4.0835Y-2.3996
X4.115Y-3.75
X4.1177Y-3.0185
X4.1177Y-3.1366
X4.1299Y-0.9114
X4.2098Y-1.5217
X4.2098Y-1.6398
X4.2213Y-2.2815
X4.2213Y-2.3996
X4.2528Y-3.75
X4.2555Y-3.0185
X4.2555Y-3.1366
X4.2677Y-0.9114
X4.3476Y-1.5217
X4.3476Y-1.6398
X4.3591Y-2.2815
X4.3591Y-2.3996
X4.3906Y-3.75
X4.3933Y-3.0185
X4.3933Y-3.1366
X4.4055Y-0.9114
X4.4854Y-1.5217
X4.4854Y-1.6398
X4.4969Y-2.2815
X4.4969Y-2.3996
X4.5272Y-1.15
X4.5272Y-1.9
X4.5272Y-2.65
X4.5272Y-3.4
X4.5283Y-3.75
X4.5311Y-3.0185
X4.5311Y-3.1366
X4.5433Y-0.9114
X4.5949Y-1.2768
X4.5949Y-2.0441
X4.5949Y-2.7984
X4.5949Y-3.5181
X4.6232Y-1.5217
X4.6232Y-1.6398
X4.6346Y-2.2815
X4.6346Y-2.3996
X4.6661Y-3.75
X4.6689Y-3.0185
X4.6689Y-3.1366
X4.6811Y-0.9114
X4.761Y-1.5217
X4.761Y-1.6398
X4.7724Y-2.2815
X4.7724Y-2.3996
X4.8067Y-3.0185
X4.8067Y-3.1366
X4.8988Y-1.5217
X4.8988Y-1.6398
X4.9102Y-2.2815
X4.9102Y-2.3996
X4.9445Y-3.0185
X4.9445Y-3.1366
T2
X0.6825Y-3.6343
X0.7127Y-3.5612
X0.7127Y-3.7073
X0.7858Y-3.5309
X0.7858Y-3.7376
X0.8589Y-3.5612
X0.8589Y-3.7073
X0.8892Y-3.6343
T3
X0.7823Y-2.2417
X0.7823Y-2.3417
X0.7823Y-2.4417
X0.7823Y-2.5417
T4
X4.9Y-1.0201
X4.9Y-3.6343
X0.7858Y-3.6343
X0.7858Y-1.0201
T0
M30
