G04 #@! TF.GenerationSoftware,KiCad,Pcbnew,(5.1.4-0-10_14)*
G04 #@! TF.CreationDate,2020-04-27T22:32:42-07:00*
G04 #@! TF.ProjectId,LED_Board_s_,4c45445f-426f-4617-9264-5f735f2e6b69,rev?*
G04 #@! TF.SameCoordinates,Original*
G04 #@! TF.FileFunction,Legend,Top*
G04 #@! TF.FilePolarity,Positive*
%FSLAX46Y46*%
G04 Gerber Fmt 4.6, Leading zero omitted, Abs format (unit mm)*
G04 Created by KiCad (PCBNEW (5.1.4-0-10_14)) date 2020-04-27 22:32:42*
%MOMM*%
%LPD*%
G04 APERTURE LIST*
%ADD10C,0.120000*%
%ADD11C,0.150000*%
G04 APERTURE END LIST*
D10*
X27360000Y-91047500D02*
X28060000Y-91047500D01*
X44820000Y-91047500D02*
X45520000Y-91047500D01*
X62280000Y-91047500D02*
X62980000Y-91047500D01*
X79740000Y-91047500D02*
X80440000Y-91047500D01*
X97200000Y-91047500D02*
X97900000Y-91047500D01*
X114660000Y-91047500D02*
X115360000Y-91047500D01*
X117060000Y-84322500D02*
X116360000Y-84322500D01*
X99600000Y-84322500D02*
X98900000Y-84322500D01*
X82140000Y-84322500D02*
X81440000Y-84322500D01*
X64680000Y-84322500D02*
X63980000Y-84322500D01*
X47220000Y-84322500D02*
X46520000Y-84322500D01*
X29760000Y-84322500D02*
X29060000Y-84322500D01*
X27360000Y-71997500D02*
X28060000Y-71997500D01*
X44820000Y-71997500D02*
X45520000Y-71997500D01*
X62280000Y-71997500D02*
X62980000Y-71997500D01*
X79740000Y-71997500D02*
X80440000Y-71997500D01*
X97200000Y-71997500D02*
X97900000Y-71997500D01*
X114660000Y-71997500D02*
X115360000Y-71997500D01*
X117060000Y-65272500D02*
X116360000Y-65272500D01*
X99600000Y-65272500D02*
X98900000Y-65272500D01*
X82140000Y-65272500D02*
X81440000Y-65272500D01*
X64680000Y-65272500D02*
X63980000Y-65272500D01*
X47220000Y-65272500D02*
X46520000Y-65272500D01*
X29760000Y-65272500D02*
X29060000Y-65272500D01*
X27360000Y-52947500D02*
X28060000Y-52947500D01*
X44820000Y-52947500D02*
X45520000Y-52947500D01*
X62280000Y-52947500D02*
X62980000Y-52947500D01*
X79740000Y-52947500D02*
X80440000Y-52947500D01*
X97200000Y-52947500D02*
X97900000Y-52947500D01*
X114660000Y-52947500D02*
X115360000Y-52947500D01*
X117060000Y-46222500D02*
X116360000Y-46222500D01*
X99600000Y-46222500D02*
X98900000Y-46222500D01*
X82140000Y-46222500D02*
X81440000Y-46222500D01*
X64680000Y-46222500D02*
X63980000Y-46222500D01*
X47220000Y-46222500D02*
X46520000Y-46222500D01*
X29760000Y-46222500D02*
X29060000Y-46222500D01*
X27360000Y-33897500D02*
X28060000Y-33897500D01*
X44820000Y-33897500D02*
X45520000Y-33897500D01*
X62280000Y-33897500D02*
X62980000Y-33897500D01*
X79740000Y-33897500D02*
X80440000Y-33897500D01*
X97200000Y-33897500D02*
X97900000Y-33897500D01*
X114660000Y-33897500D02*
X115360000Y-33897500D01*
X117060000Y-27172500D02*
X116360000Y-27172500D01*
X99600000Y-27172500D02*
X98900000Y-27172500D01*
X82140000Y-27172500D02*
X81440000Y-27172500D01*
X64680000Y-27172500D02*
X63980000Y-27172500D01*
X47220000Y-27172500D02*
X46520000Y-27172500D01*
X29760000Y-27172500D02*
X29060000Y-27172500D01*
D11*
X123338571Y-82388571D02*
X123005238Y-82388571D01*
X123005238Y-82912380D02*
X123005238Y-81912380D01*
X123481428Y-81912380D01*
X123862380Y-82912380D02*
X123862380Y-81912380D01*
X124338571Y-82912380D02*
X124338571Y-81912380D01*
X124576666Y-81912380D01*
X124719523Y-81960000D01*
X124814761Y-82055238D01*
X124862380Y-82150476D01*
X124910000Y-82340952D01*
X124910000Y-82483809D01*
X124862380Y-82674285D01*
X124814761Y-82769523D01*
X124719523Y-82864761D01*
X124576666Y-82912380D01*
X124338571Y-82912380D01*
X125290952Y-82007619D02*
X125338571Y-81960000D01*
X125433809Y-81912380D01*
X125671904Y-81912380D01*
X125767142Y-81960000D01*
X125814761Y-82007619D01*
X125862380Y-82102857D01*
X125862380Y-82198095D01*
X125814761Y-82340952D01*
X125243333Y-82912380D01*
X125862380Y-82912380D01*
X17138571Y-32318571D02*
X16805238Y-32318571D01*
X16805238Y-32842380D02*
X16805238Y-31842380D01*
X17281428Y-31842380D01*
X17662380Y-32842380D02*
X17662380Y-31842380D01*
X18138571Y-32842380D02*
X18138571Y-31842380D01*
X18376666Y-31842380D01*
X18519523Y-31890000D01*
X18614761Y-31985238D01*
X18662380Y-32080476D01*
X18710000Y-32270952D01*
X18710000Y-32413809D01*
X18662380Y-32604285D01*
X18614761Y-32699523D01*
X18519523Y-32794761D01*
X18376666Y-32842380D01*
X18138571Y-32842380D01*
X19662380Y-32842380D02*
X19090952Y-32842380D01*
X19376666Y-32842380D02*
X19376666Y-31842380D01*
X19281428Y-31985238D01*
X19186190Y-32080476D01*
X19090952Y-32128095D01*
X123698096Y-88262381D02*
X123698096Y-87262381D01*
X123698096Y-87738572D02*
X124269524Y-87738572D01*
X124269524Y-88262381D02*
X124269524Y-87262381D01*
X125174286Y-87595715D02*
X125174286Y-88262381D01*
X124936191Y-87214762D02*
X124698096Y-87929048D01*
X125317143Y-87929048D01*
X123698096Y-21862379D02*
X123698096Y-20862379D01*
X123698096Y-21338570D02*
X124269524Y-21338570D01*
X124269524Y-21862379D02*
X124269524Y-20862379D01*
X124650477Y-20862379D02*
X125269524Y-20862379D01*
X124936191Y-21243332D01*
X125079048Y-21243332D01*
X125174286Y-21290951D01*
X125221905Y-21338570D01*
X125269524Y-21433808D01*
X125269524Y-21671903D01*
X125221905Y-21767141D01*
X125174286Y-21814760D01*
X125079048Y-21862379D01*
X124793334Y-21862379D01*
X124698096Y-21814760D01*
X124650477Y-21767141D01*
X19198094Y-88262381D02*
X19198094Y-87262381D01*
X19198094Y-87738572D02*
X19769522Y-87738572D01*
X19769522Y-88262381D02*
X19769522Y-87262381D01*
X20198094Y-87357620D02*
X20245713Y-87310001D01*
X20340951Y-87262381D01*
X20579046Y-87262381D01*
X20674284Y-87310001D01*
X20721903Y-87357620D01*
X20769522Y-87452858D01*
X20769522Y-87548096D01*
X20721903Y-87690953D01*
X20150475Y-88262381D01*
X20769522Y-88262381D01*
X19198094Y-21862379D02*
X19198094Y-20862379D01*
X19198094Y-21338570D02*
X19769522Y-21338570D01*
X19769522Y-21862379D02*
X19769522Y-20862379D01*
X20769522Y-21862379D02*
X20198094Y-21862379D01*
X20483808Y-21862379D02*
X20483808Y-20862379D01*
X20388570Y-21005237D01*
X20293332Y-21100475D01*
X20198094Y-21148094D01*
X27345714Y-95009880D02*
X27345714Y-94009880D01*
X27583809Y-94009880D01*
X27726666Y-94057500D01*
X27821904Y-94152738D01*
X27869523Y-94247976D01*
X27917142Y-94438452D01*
X27917142Y-94581309D01*
X27869523Y-94771785D01*
X27821904Y-94867023D01*
X27726666Y-94962261D01*
X27583809Y-95009880D01*
X27345714Y-95009880D01*
X28774285Y-94343214D02*
X28774285Y-95009880D01*
X28536190Y-93962261D02*
X28298095Y-94676547D01*
X28917142Y-94676547D01*
X29440952Y-94438452D02*
X29345714Y-94390833D01*
X29298095Y-94343214D01*
X29250476Y-94247976D01*
X29250476Y-94200357D01*
X29298095Y-94105119D01*
X29345714Y-94057500D01*
X29440952Y-94009880D01*
X29631428Y-94009880D01*
X29726666Y-94057500D01*
X29774285Y-94105119D01*
X29821904Y-94200357D01*
X29821904Y-94247976D01*
X29774285Y-94343214D01*
X29726666Y-94390833D01*
X29631428Y-94438452D01*
X29440952Y-94438452D01*
X29345714Y-94486071D01*
X29298095Y-94533690D01*
X29250476Y-94628928D01*
X29250476Y-94819404D01*
X29298095Y-94914642D01*
X29345714Y-94962261D01*
X29440952Y-95009880D01*
X29631428Y-95009880D01*
X29726666Y-94962261D01*
X29774285Y-94914642D01*
X29821904Y-94819404D01*
X29821904Y-94628928D01*
X29774285Y-94533690D01*
X29726666Y-94486071D01*
X29631428Y-94438452D01*
X44805714Y-95009880D02*
X44805714Y-94009880D01*
X45043809Y-94009880D01*
X45186666Y-94057500D01*
X45281904Y-94152738D01*
X45329523Y-94247976D01*
X45377142Y-94438452D01*
X45377142Y-94581309D01*
X45329523Y-94771785D01*
X45281904Y-94867023D01*
X45186666Y-94962261D01*
X45043809Y-95009880D01*
X44805714Y-95009880D01*
X46234285Y-94343214D02*
X46234285Y-95009880D01*
X45996190Y-93962261D02*
X45758095Y-94676547D01*
X46377142Y-94676547D01*
X46662857Y-94009880D02*
X47329523Y-94009880D01*
X46900952Y-95009880D01*
X62265714Y-95009880D02*
X62265714Y-94009880D01*
X62503809Y-94009880D01*
X62646666Y-94057500D01*
X62741904Y-94152738D01*
X62789523Y-94247976D01*
X62837142Y-94438452D01*
X62837142Y-94581309D01*
X62789523Y-94771785D01*
X62741904Y-94867023D01*
X62646666Y-94962261D01*
X62503809Y-95009880D01*
X62265714Y-95009880D01*
X63694285Y-94343214D02*
X63694285Y-95009880D01*
X63456190Y-93962261D02*
X63218095Y-94676547D01*
X63837142Y-94676547D01*
X64646666Y-94009880D02*
X64456190Y-94009880D01*
X64360952Y-94057500D01*
X64313333Y-94105119D01*
X64218095Y-94247976D01*
X64170476Y-94438452D01*
X64170476Y-94819404D01*
X64218095Y-94914642D01*
X64265714Y-94962261D01*
X64360952Y-95009880D01*
X64551428Y-95009880D01*
X64646666Y-94962261D01*
X64694285Y-94914642D01*
X64741904Y-94819404D01*
X64741904Y-94581309D01*
X64694285Y-94486071D01*
X64646666Y-94438452D01*
X64551428Y-94390833D01*
X64360952Y-94390833D01*
X64265714Y-94438452D01*
X64218095Y-94486071D01*
X64170476Y-94581309D01*
X79725714Y-95009880D02*
X79725714Y-94009880D01*
X79963809Y-94009880D01*
X80106666Y-94057500D01*
X80201904Y-94152738D01*
X80249523Y-94247976D01*
X80297142Y-94438452D01*
X80297142Y-94581309D01*
X80249523Y-94771785D01*
X80201904Y-94867023D01*
X80106666Y-94962261D01*
X79963809Y-95009880D01*
X79725714Y-95009880D01*
X81154285Y-94343214D02*
X81154285Y-95009880D01*
X80916190Y-93962261D02*
X80678095Y-94676547D01*
X81297142Y-94676547D01*
X82154285Y-94009880D02*
X81678095Y-94009880D01*
X81630476Y-94486071D01*
X81678095Y-94438452D01*
X81773333Y-94390833D01*
X82011428Y-94390833D01*
X82106666Y-94438452D01*
X82154285Y-94486071D01*
X82201904Y-94581309D01*
X82201904Y-94819404D01*
X82154285Y-94914642D01*
X82106666Y-94962261D01*
X82011428Y-95009880D01*
X81773333Y-95009880D01*
X81678095Y-94962261D01*
X81630476Y-94914642D01*
X97185714Y-95009880D02*
X97185714Y-94009880D01*
X97423809Y-94009880D01*
X97566666Y-94057500D01*
X97661904Y-94152738D01*
X97709523Y-94247976D01*
X97757142Y-94438452D01*
X97757142Y-94581309D01*
X97709523Y-94771785D01*
X97661904Y-94867023D01*
X97566666Y-94962261D01*
X97423809Y-95009880D01*
X97185714Y-95009880D01*
X98614285Y-94343214D02*
X98614285Y-95009880D01*
X98376190Y-93962261D02*
X98138095Y-94676547D01*
X98757142Y-94676547D01*
X99566666Y-94343214D02*
X99566666Y-95009880D01*
X99328571Y-93962261D02*
X99090476Y-94676547D01*
X99709523Y-94676547D01*
X114645714Y-95009880D02*
X114645714Y-94009880D01*
X114883809Y-94009880D01*
X115026666Y-94057500D01*
X115121904Y-94152738D01*
X115169523Y-94247976D01*
X115217142Y-94438452D01*
X115217142Y-94581309D01*
X115169523Y-94771785D01*
X115121904Y-94867023D01*
X115026666Y-94962261D01*
X114883809Y-95009880D01*
X114645714Y-95009880D01*
X116074285Y-94343214D02*
X116074285Y-95009880D01*
X115836190Y-93962261D02*
X115598095Y-94676547D01*
X116217142Y-94676547D01*
X116502857Y-94009880D02*
X117121904Y-94009880D01*
X116788571Y-94390833D01*
X116931428Y-94390833D01*
X117026666Y-94438452D01*
X117074285Y-94486071D01*
X117121904Y-94581309D01*
X117121904Y-94819404D01*
X117074285Y-94914642D01*
X117026666Y-94962261D01*
X116931428Y-95009880D01*
X116645714Y-95009880D01*
X116550476Y-94962261D01*
X116502857Y-94914642D01*
X114645714Y-81264880D02*
X114645714Y-80264880D01*
X114883809Y-80264880D01*
X115026666Y-80312500D01*
X115121904Y-80407738D01*
X115169523Y-80502976D01*
X115217142Y-80693452D01*
X115217142Y-80836309D01*
X115169523Y-81026785D01*
X115121904Y-81122023D01*
X115026666Y-81217261D01*
X114883809Y-81264880D01*
X114645714Y-81264880D01*
X116074285Y-80598214D02*
X116074285Y-81264880D01*
X115836190Y-80217261D02*
X115598095Y-80931547D01*
X116217142Y-80931547D01*
X116550476Y-80360119D02*
X116598095Y-80312500D01*
X116693333Y-80264880D01*
X116931428Y-80264880D01*
X117026666Y-80312500D01*
X117074285Y-80360119D01*
X117121904Y-80455357D01*
X117121904Y-80550595D01*
X117074285Y-80693452D01*
X116502857Y-81264880D01*
X117121904Y-81264880D01*
X97185714Y-81264880D02*
X97185714Y-80264880D01*
X97423809Y-80264880D01*
X97566666Y-80312500D01*
X97661904Y-80407738D01*
X97709523Y-80502976D01*
X97757142Y-80693452D01*
X97757142Y-80836309D01*
X97709523Y-81026785D01*
X97661904Y-81122023D01*
X97566666Y-81217261D01*
X97423809Y-81264880D01*
X97185714Y-81264880D01*
X98614285Y-80598214D02*
X98614285Y-81264880D01*
X98376190Y-80217261D02*
X98138095Y-80931547D01*
X98757142Y-80931547D01*
X99661904Y-81264880D02*
X99090476Y-81264880D01*
X99376190Y-81264880D02*
X99376190Y-80264880D01*
X99280952Y-80407738D01*
X99185714Y-80502976D01*
X99090476Y-80550595D01*
X79725714Y-81264880D02*
X79725714Y-80264880D01*
X79963809Y-80264880D01*
X80106666Y-80312500D01*
X80201904Y-80407738D01*
X80249523Y-80502976D01*
X80297142Y-80693452D01*
X80297142Y-80836309D01*
X80249523Y-81026785D01*
X80201904Y-81122023D01*
X80106666Y-81217261D01*
X79963809Y-81264880D01*
X79725714Y-81264880D01*
X81154285Y-80598214D02*
X81154285Y-81264880D01*
X80916190Y-80217261D02*
X80678095Y-80931547D01*
X81297142Y-80931547D01*
X81868571Y-80264880D02*
X81963809Y-80264880D01*
X82059047Y-80312500D01*
X82106666Y-80360119D01*
X82154285Y-80455357D01*
X82201904Y-80645833D01*
X82201904Y-80883928D01*
X82154285Y-81074404D01*
X82106666Y-81169642D01*
X82059047Y-81217261D01*
X81963809Y-81264880D01*
X81868571Y-81264880D01*
X81773333Y-81217261D01*
X81725714Y-81169642D01*
X81678095Y-81074404D01*
X81630476Y-80883928D01*
X81630476Y-80645833D01*
X81678095Y-80455357D01*
X81725714Y-80360119D01*
X81773333Y-80312500D01*
X81868571Y-80264880D01*
X62265714Y-81264880D02*
X62265714Y-80264880D01*
X62503809Y-80264880D01*
X62646666Y-80312500D01*
X62741904Y-80407738D01*
X62789523Y-80502976D01*
X62837142Y-80693452D01*
X62837142Y-80836309D01*
X62789523Y-81026785D01*
X62741904Y-81122023D01*
X62646666Y-81217261D01*
X62503809Y-81264880D01*
X62265714Y-81264880D01*
X63170476Y-80264880D02*
X63789523Y-80264880D01*
X63456190Y-80645833D01*
X63599047Y-80645833D01*
X63694285Y-80693452D01*
X63741904Y-80741071D01*
X63789523Y-80836309D01*
X63789523Y-81074404D01*
X63741904Y-81169642D01*
X63694285Y-81217261D01*
X63599047Y-81264880D01*
X63313333Y-81264880D01*
X63218095Y-81217261D01*
X63170476Y-81169642D01*
X64265714Y-81264880D02*
X64456190Y-81264880D01*
X64551428Y-81217261D01*
X64599047Y-81169642D01*
X64694285Y-81026785D01*
X64741904Y-80836309D01*
X64741904Y-80455357D01*
X64694285Y-80360119D01*
X64646666Y-80312500D01*
X64551428Y-80264880D01*
X64360952Y-80264880D01*
X64265714Y-80312500D01*
X64218095Y-80360119D01*
X64170476Y-80455357D01*
X64170476Y-80693452D01*
X64218095Y-80788690D01*
X64265714Y-80836309D01*
X64360952Y-80883928D01*
X64551428Y-80883928D01*
X64646666Y-80836309D01*
X64694285Y-80788690D01*
X64741904Y-80693452D01*
X44805714Y-81264880D02*
X44805714Y-80264880D01*
X45043809Y-80264880D01*
X45186666Y-80312500D01*
X45281904Y-80407738D01*
X45329523Y-80502976D01*
X45377142Y-80693452D01*
X45377142Y-80836309D01*
X45329523Y-81026785D01*
X45281904Y-81122023D01*
X45186666Y-81217261D01*
X45043809Y-81264880D01*
X44805714Y-81264880D01*
X45710476Y-80264880D02*
X46329523Y-80264880D01*
X45996190Y-80645833D01*
X46139047Y-80645833D01*
X46234285Y-80693452D01*
X46281904Y-80741071D01*
X46329523Y-80836309D01*
X46329523Y-81074404D01*
X46281904Y-81169642D01*
X46234285Y-81217261D01*
X46139047Y-81264880D01*
X45853333Y-81264880D01*
X45758095Y-81217261D01*
X45710476Y-81169642D01*
X46900952Y-80693452D02*
X46805714Y-80645833D01*
X46758095Y-80598214D01*
X46710476Y-80502976D01*
X46710476Y-80455357D01*
X46758095Y-80360119D01*
X46805714Y-80312500D01*
X46900952Y-80264880D01*
X47091428Y-80264880D01*
X47186666Y-80312500D01*
X47234285Y-80360119D01*
X47281904Y-80455357D01*
X47281904Y-80502976D01*
X47234285Y-80598214D01*
X47186666Y-80645833D01*
X47091428Y-80693452D01*
X46900952Y-80693452D01*
X46805714Y-80741071D01*
X46758095Y-80788690D01*
X46710476Y-80883928D01*
X46710476Y-81074404D01*
X46758095Y-81169642D01*
X46805714Y-81217261D01*
X46900952Y-81264880D01*
X47091428Y-81264880D01*
X47186666Y-81217261D01*
X47234285Y-81169642D01*
X47281904Y-81074404D01*
X47281904Y-80883928D01*
X47234285Y-80788690D01*
X47186666Y-80741071D01*
X47091428Y-80693452D01*
X27345714Y-81264880D02*
X27345714Y-80264880D01*
X27583809Y-80264880D01*
X27726666Y-80312500D01*
X27821904Y-80407738D01*
X27869523Y-80502976D01*
X27917142Y-80693452D01*
X27917142Y-80836309D01*
X27869523Y-81026785D01*
X27821904Y-81122023D01*
X27726666Y-81217261D01*
X27583809Y-81264880D01*
X27345714Y-81264880D01*
X28250476Y-80264880D02*
X28869523Y-80264880D01*
X28536190Y-80645833D01*
X28679047Y-80645833D01*
X28774285Y-80693452D01*
X28821904Y-80741071D01*
X28869523Y-80836309D01*
X28869523Y-81074404D01*
X28821904Y-81169642D01*
X28774285Y-81217261D01*
X28679047Y-81264880D01*
X28393333Y-81264880D01*
X28298095Y-81217261D01*
X28250476Y-81169642D01*
X29202857Y-80264880D02*
X29869523Y-80264880D01*
X29440952Y-81264880D01*
X27345714Y-75959880D02*
X27345714Y-74959880D01*
X27583809Y-74959880D01*
X27726666Y-75007500D01*
X27821904Y-75102738D01*
X27869523Y-75197976D01*
X27917142Y-75388452D01*
X27917142Y-75531309D01*
X27869523Y-75721785D01*
X27821904Y-75817023D01*
X27726666Y-75912261D01*
X27583809Y-75959880D01*
X27345714Y-75959880D01*
X28250476Y-74959880D02*
X28869523Y-74959880D01*
X28536190Y-75340833D01*
X28679047Y-75340833D01*
X28774285Y-75388452D01*
X28821904Y-75436071D01*
X28869523Y-75531309D01*
X28869523Y-75769404D01*
X28821904Y-75864642D01*
X28774285Y-75912261D01*
X28679047Y-75959880D01*
X28393333Y-75959880D01*
X28298095Y-75912261D01*
X28250476Y-75864642D01*
X29726666Y-74959880D02*
X29536190Y-74959880D01*
X29440952Y-75007500D01*
X29393333Y-75055119D01*
X29298095Y-75197976D01*
X29250476Y-75388452D01*
X29250476Y-75769404D01*
X29298095Y-75864642D01*
X29345714Y-75912261D01*
X29440952Y-75959880D01*
X29631428Y-75959880D01*
X29726666Y-75912261D01*
X29774285Y-75864642D01*
X29821904Y-75769404D01*
X29821904Y-75531309D01*
X29774285Y-75436071D01*
X29726666Y-75388452D01*
X29631428Y-75340833D01*
X29440952Y-75340833D01*
X29345714Y-75388452D01*
X29298095Y-75436071D01*
X29250476Y-75531309D01*
X44805714Y-75959880D02*
X44805714Y-74959880D01*
X45043809Y-74959880D01*
X45186666Y-75007500D01*
X45281904Y-75102738D01*
X45329523Y-75197976D01*
X45377142Y-75388452D01*
X45377142Y-75531309D01*
X45329523Y-75721785D01*
X45281904Y-75817023D01*
X45186666Y-75912261D01*
X45043809Y-75959880D01*
X44805714Y-75959880D01*
X45710476Y-74959880D02*
X46329523Y-74959880D01*
X45996190Y-75340833D01*
X46139047Y-75340833D01*
X46234285Y-75388452D01*
X46281904Y-75436071D01*
X46329523Y-75531309D01*
X46329523Y-75769404D01*
X46281904Y-75864642D01*
X46234285Y-75912261D01*
X46139047Y-75959880D01*
X45853333Y-75959880D01*
X45758095Y-75912261D01*
X45710476Y-75864642D01*
X47234285Y-74959880D02*
X46758095Y-74959880D01*
X46710476Y-75436071D01*
X46758095Y-75388452D01*
X46853333Y-75340833D01*
X47091428Y-75340833D01*
X47186666Y-75388452D01*
X47234285Y-75436071D01*
X47281904Y-75531309D01*
X47281904Y-75769404D01*
X47234285Y-75864642D01*
X47186666Y-75912261D01*
X47091428Y-75959880D01*
X46853333Y-75959880D01*
X46758095Y-75912261D01*
X46710476Y-75864642D01*
X62265714Y-75959880D02*
X62265714Y-74959880D01*
X62503809Y-74959880D01*
X62646666Y-75007500D01*
X62741904Y-75102738D01*
X62789523Y-75197976D01*
X62837142Y-75388452D01*
X62837142Y-75531309D01*
X62789523Y-75721785D01*
X62741904Y-75817023D01*
X62646666Y-75912261D01*
X62503809Y-75959880D01*
X62265714Y-75959880D01*
X63170476Y-74959880D02*
X63789523Y-74959880D01*
X63456190Y-75340833D01*
X63599047Y-75340833D01*
X63694285Y-75388452D01*
X63741904Y-75436071D01*
X63789523Y-75531309D01*
X63789523Y-75769404D01*
X63741904Y-75864642D01*
X63694285Y-75912261D01*
X63599047Y-75959880D01*
X63313333Y-75959880D01*
X63218095Y-75912261D01*
X63170476Y-75864642D01*
X64646666Y-75293214D02*
X64646666Y-75959880D01*
X64408571Y-74912261D02*
X64170476Y-75626547D01*
X64789523Y-75626547D01*
X79725714Y-75959880D02*
X79725714Y-74959880D01*
X79963809Y-74959880D01*
X80106666Y-75007500D01*
X80201904Y-75102738D01*
X80249523Y-75197976D01*
X80297142Y-75388452D01*
X80297142Y-75531309D01*
X80249523Y-75721785D01*
X80201904Y-75817023D01*
X80106666Y-75912261D01*
X79963809Y-75959880D01*
X79725714Y-75959880D01*
X80630476Y-74959880D02*
X81249523Y-74959880D01*
X80916190Y-75340833D01*
X81059047Y-75340833D01*
X81154285Y-75388452D01*
X81201904Y-75436071D01*
X81249523Y-75531309D01*
X81249523Y-75769404D01*
X81201904Y-75864642D01*
X81154285Y-75912261D01*
X81059047Y-75959880D01*
X80773333Y-75959880D01*
X80678095Y-75912261D01*
X80630476Y-75864642D01*
X81582857Y-74959880D02*
X82201904Y-74959880D01*
X81868571Y-75340833D01*
X82011428Y-75340833D01*
X82106666Y-75388452D01*
X82154285Y-75436071D01*
X82201904Y-75531309D01*
X82201904Y-75769404D01*
X82154285Y-75864642D01*
X82106666Y-75912261D01*
X82011428Y-75959880D01*
X81725714Y-75959880D01*
X81630476Y-75912261D01*
X81582857Y-75864642D01*
X97185714Y-75959880D02*
X97185714Y-74959880D01*
X97423809Y-74959880D01*
X97566666Y-75007500D01*
X97661904Y-75102738D01*
X97709523Y-75197976D01*
X97757142Y-75388452D01*
X97757142Y-75531309D01*
X97709523Y-75721785D01*
X97661904Y-75817023D01*
X97566666Y-75912261D01*
X97423809Y-75959880D01*
X97185714Y-75959880D01*
X98090476Y-74959880D02*
X98709523Y-74959880D01*
X98376190Y-75340833D01*
X98519047Y-75340833D01*
X98614285Y-75388452D01*
X98661904Y-75436071D01*
X98709523Y-75531309D01*
X98709523Y-75769404D01*
X98661904Y-75864642D01*
X98614285Y-75912261D01*
X98519047Y-75959880D01*
X98233333Y-75959880D01*
X98138095Y-75912261D01*
X98090476Y-75864642D01*
X99090476Y-75055119D02*
X99138095Y-75007500D01*
X99233333Y-74959880D01*
X99471428Y-74959880D01*
X99566666Y-75007500D01*
X99614285Y-75055119D01*
X99661904Y-75150357D01*
X99661904Y-75245595D01*
X99614285Y-75388452D01*
X99042857Y-75959880D01*
X99661904Y-75959880D01*
X114645714Y-75959880D02*
X114645714Y-74959880D01*
X114883809Y-74959880D01*
X115026666Y-75007500D01*
X115121904Y-75102738D01*
X115169523Y-75197976D01*
X115217142Y-75388452D01*
X115217142Y-75531309D01*
X115169523Y-75721785D01*
X115121904Y-75817023D01*
X115026666Y-75912261D01*
X114883809Y-75959880D01*
X114645714Y-75959880D01*
X115550476Y-74959880D02*
X116169523Y-74959880D01*
X115836190Y-75340833D01*
X115979047Y-75340833D01*
X116074285Y-75388452D01*
X116121904Y-75436071D01*
X116169523Y-75531309D01*
X116169523Y-75769404D01*
X116121904Y-75864642D01*
X116074285Y-75912261D01*
X115979047Y-75959880D01*
X115693333Y-75959880D01*
X115598095Y-75912261D01*
X115550476Y-75864642D01*
X117121904Y-75959880D02*
X116550476Y-75959880D01*
X116836190Y-75959880D02*
X116836190Y-74959880D01*
X116740952Y-75102738D01*
X116645714Y-75197976D01*
X116550476Y-75245595D01*
X114645714Y-62214880D02*
X114645714Y-61214880D01*
X114883809Y-61214880D01*
X115026666Y-61262500D01*
X115121904Y-61357738D01*
X115169523Y-61452976D01*
X115217142Y-61643452D01*
X115217142Y-61786309D01*
X115169523Y-61976785D01*
X115121904Y-62072023D01*
X115026666Y-62167261D01*
X114883809Y-62214880D01*
X114645714Y-62214880D01*
X115550476Y-61214880D02*
X116169523Y-61214880D01*
X115836190Y-61595833D01*
X115979047Y-61595833D01*
X116074285Y-61643452D01*
X116121904Y-61691071D01*
X116169523Y-61786309D01*
X116169523Y-62024404D01*
X116121904Y-62119642D01*
X116074285Y-62167261D01*
X115979047Y-62214880D01*
X115693333Y-62214880D01*
X115598095Y-62167261D01*
X115550476Y-62119642D01*
X116788571Y-61214880D02*
X116883809Y-61214880D01*
X116979047Y-61262500D01*
X117026666Y-61310119D01*
X117074285Y-61405357D01*
X117121904Y-61595833D01*
X117121904Y-61833928D01*
X117074285Y-62024404D01*
X117026666Y-62119642D01*
X116979047Y-62167261D01*
X116883809Y-62214880D01*
X116788571Y-62214880D01*
X116693333Y-62167261D01*
X116645714Y-62119642D01*
X116598095Y-62024404D01*
X116550476Y-61833928D01*
X116550476Y-61595833D01*
X116598095Y-61405357D01*
X116645714Y-61310119D01*
X116693333Y-61262500D01*
X116788571Y-61214880D01*
X97185714Y-62214880D02*
X97185714Y-61214880D01*
X97423809Y-61214880D01*
X97566666Y-61262500D01*
X97661904Y-61357738D01*
X97709523Y-61452976D01*
X97757142Y-61643452D01*
X97757142Y-61786309D01*
X97709523Y-61976785D01*
X97661904Y-62072023D01*
X97566666Y-62167261D01*
X97423809Y-62214880D01*
X97185714Y-62214880D01*
X98138095Y-61310119D02*
X98185714Y-61262500D01*
X98280952Y-61214880D01*
X98519047Y-61214880D01*
X98614285Y-61262500D01*
X98661904Y-61310119D01*
X98709523Y-61405357D01*
X98709523Y-61500595D01*
X98661904Y-61643452D01*
X98090476Y-62214880D01*
X98709523Y-62214880D01*
X99185714Y-62214880D02*
X99376190Y-62214880D01*
X99471428Y-62167261D01*
X99519047Y-62119642D01*
X99614285Y-61976785D01*
X99661904Y-61786309D01*
X99661904Y-61405357D01*
X99614285Y-61310119D01*
X99566666Y-61262500D01*
X99471428Y-61214880D01*
X99280952Y-61214880D01*
X99185714Y-61262500D01*
X99138095Y-61310119D01*
X99090476Y-61405357D01*
X99090476Y-61643452D01*
X99138095Y-61738690D01*
X99185714Y-61786309D01*
X99280952Y-61833928D01*
X99471428Y-61833928D01*
X99566666Y-61786309D01*
X99614285Y-61738690D01*
X99661904Y-61643452D01*
X79725714Y-62214880D02*
X79725714Y-61214880D01*
X79963809Y-61214880D01*
X80106666Y-61262500D01*
X80201904Y-61357738D01*
X80249523Y-61452976D01*
X80297142Y-61643452D01*
X80297142Y-61786309D01*
X80249523Y-61976785D01*
X80201904Y-62072023D01*
X80106666Y-62167261D01*
X79963809Y-62214880D01*
X79725714Y-62214880D01*
X80678095Y-61310119D02*
X80725714Y-61262500D01*
X80820952Y-61214880D01*
X81059047Y-61214880D01*
X81154285Y-61262500D01*
X81201904Y-61310119D01*
X81249523Y-61405357D01*
X81249523Y-61500595D01*
X81201904Y-61643452D01*
X80630476Y-62214880D01*
X81249523Y-62214880D01*
X81820952Y-61643452D02*
X81725714Y-61595833D01*
X81678095Y-61548214D01*
X81630476Y-61452976D01*
X81630476Y-61405357D01*
X81678095Y-61310119D01*
X81725714Y-61262500D01*
X81820952Y-61214880D01*
X82011428Y-61214880D01*
X82106666Y-61262500D01*
X82154285Y-61310119D01*
X82201904Y-61405357D01*
X82201904Y-61452976D01*
X82154285Y-61548214D01*
X82106666Y-61595833D01*
X82011428Y-61643452D01*
X81820952Y-61643452D01*
X81725714Y-61691071D01*
X81678095Y-61738690D01*
X81630476Y-61833928D01*
X81630476Y-62024404D01*
X81678095Y-62119642D01*
X81725714Y-62167261D01*
X81820952Y-62214880D01*
X82011428Y-62214880D01*
X82106666Y-62167261D01*
X82154285Y-62119642D01*
X82201904Y-62024404D01*
X82201904Y-61833928D01*
X82154285Y-61738690D01*
X82106666Y-61691071D01*
X82011428Y-61643452D01*
X62265714Y-62214880D02*
X62265714Y-61214880D01*
X62503809Y-61214880D01*
X62646666Y-61262500D01*
X62741904Y-61357738D01*
X62789523Y-61452976D01*
X62837142Y-61643452D01*
X62837142Y-61786309D01*
X62789523Y-61976785D01*
X62741904Y-62072023D01*
X62646666Y-62167261D01*
X62503809Y-62214880D01*
X62265714Y-62214880D01*
X63218095Y-61310119D02*
X63265714Y-61262500D01*
X63360952Y-61214880D01*
X63599047Y-61214880D01*
X63694285Y-61262500D01*
X63741904Y-61310119D01*
X63789523Y-61405357D01*
X63789523Y-61500595D01*
X63741904Y-61643452D01*
X63170476Y-62214880D01*
X63789523Y-62214880D01*
X64122857Y-61214880D02*
X64789523Y-61214880D01*
X64360952Y-62214880D01*
X44805714Y-62214880D02*
X44805714Y-61214880D01*
X45043809Y-61214880D01*
X45186666Y-61262500D01*
X45281904Y-61357738D01*
X45329523Y-61452976D01*
X45377142Y-61643452D01*
X45377142Y-61786309D01*
X45329523Y-61976785D01*
X45281904Y-62072023D01*
X45186666Y-62167261D01*
X45043809Y-62214880D01*
X44805714Y-62214880D01*
X45758095Y-61310119D02*
X45805714Y-61262500D01*
X45900952Y-61214880D01*
X46139047Y-61214880D01*
X46234285Y-61262500D01*
X46281904Y-61310119D01*
X46329523Y-61405357D01*
X46329523Y-61500595D01*
X46281904Y-61643452D01*
X45710476Y-62214880D01*
X46329523Y-62214880D01*
X47186666Y-61214880D02*
X46996190Y-61214880D01*
X46900952Y-61262500D01*
X46853333Y-61310119D01*
X46758095Y-61452976D01*
X46710476Y-61643452D01*
X46710476Y-62024404D01*
X46758095Y-62119642D01*
X46805714Y-62167261D01*
X46900952Y-62214880D01*
X47091428Y-62214880D01*
X47186666Y-62167261D01*
X47234285Y-62119642D01*
X47281904Y-62024404D01*
X47281904Y-61786309D01*
X47234285Y-61691071D01*
X47186666Y-61643452D01*
X47091428Y-61595833D01*
X46900952Y-61595833D01*
X46805714Y-61643452D01*
X46758095Y-61691071D01*
X46710476Y-61786309D01*
X27345714Y-62214880D02*
X27345714Y-61214880D01*
X27583809Y-61214880D01*
X27726666Y-61262500D01*
X27821904Y-61357738D01*
X27869523Y-61452976D01*
X27917142Y-61643452D01*
X27917142Y-61786309D01*
X27869523Y-61976785D01*
X27821904Y-62072023D01*
X27726666Y-62167261D01*
X27583809Y-62214880D01*
X27345714Y-62214880D01*
X28298095Y-61310119D02*
X28345714Y-61262500D01*
X28440952Y-61214880D01*
X28679047Y-61214880D01*
X28774285Y-61262500D01*
X28821904Y-61310119D01*
X28869523Y-61405357D01*
X28869523Y-61500595D01*
X28821904Y-61643452D01*
X28250476Y-62214880D01*
X28869523Y-62214880D01*
X29774285Y-61214880D02*
X29298095Y-61214880D01*
X29250476Y-61691071D01*
X29298095Y-61643452D01*
X29393333Y-61595833D01*
X29631428Y-61595833D01*
X29726666Y-61643452D01*
X29774285Y-61691071D01*
X29821904Y-61786309D01*
X29821904Y-62024404D01*
X29774285Y-62119642D01*
X29726666Y-62167261D01*
X29631428Y-62214880D01*
X29393333Y-62214880D01*
X29298095Y-62167261D01*
X29250476Y-62119642D01*
X27345714Y-56909880D02*
X27345714Y-55909880D01*
X27583809Y-55909880D01*
X27726666Y-55957500D01*
X27821904Y-56052738D01*
X27869523Y-56147976D01*
X27917142Y-56338452D01*
X27917142Y-56481309D01*
X27869523Y-56671785D01*
X27821904Y-56767023D01*
X27726666Y-56862261D01*
X27583809Y-56909880D01*
X27345714Y-56909880D01*
X28298095Y-56005119D02*
X28345714Y-55957500D01*
X28440952Y-55909880D01*
X28679047Y-55909880D01*
X28774285Y-55957500D01*
X28821904Y-56005119D01*
X28869523Y-56100357D01*
X28869523Y-56195595D01*
X28821904Y-56338452D01*
X28250476Y-56909880D01*
X28869523Y-56909880D01*
X29726666Y-56243214D02*
X29726666Y-56909880D01*
X29488571Y-55862261D02*
X29250476Y-56576547D01*
X29869523Y-56576547D01*
X44805714Y-56909880D02*
X44805714Y-55909880D01*
X45043809Y-55909880D01*
X45186666Y-55957500D01*
X45281904Y-56052738D01*
X45329523Y-56147976D01*
X45377142Y-56338452D01*
X45377142Y-56481309D01*
X45329523Y-56671785D01*
X45281904Y-56767023D01*
X45186666Y-56862261D01*
X45043809Y-56909880D01*
X44805714Y-56909880D01*
X45758095Y-56005119D02*
X45805714Y-55957500D01*
X45900952Y-55909880D01*
X46139047Y-55909880D01*
X46234285Y-55957500D01*
X46281904Y-56005119D01*
X46329523Y-56100357D01*
X46329523Y-56195595D01*
X46281904Y-56338452D01*
X45710476Y-56909880D01*
X46329523Y-56909880D01*
X46662857Y-55909880D02*
X47281904Y-55909880D01*
X46948571Y-56290833D01*
X47091428Y-56290833D01*
X47186666Y-56338452D01*
X47234285Y-56386071D01*
X47281904Y-56481309D01*
X47281904Y-56719404D01*
X47234285Y-56814642D01*
X47186666Y-56862261D01*
X47091428Y-56909880D01*
X46805714Y-56909880D01*
X46710476Y-56862261D01*
X46662857Y-56814642D01*
X62265714Y-56909880D02*
X62265714Y-55909880D01*
X62503809Y-55909880D01*
X62646666Y-55957500D01*
X62741904Y-56052738D01*
X62789523Y-56147976D01*
X62837142Y-56338452D01*
X62837142Y-56481309D01*
X62789523Y-56671785D01*
X62741904Y-56767023D01*
X62646666Y-56862261D01*
X62503809Y-56909880D01*
X62265714Y-56909880D01*
X63218095Y-56005119D02*
X63265714Y-55957500D01*
X63360952Y-55909880D01*
X63599047Y-55909880D01*
X63694285Y-55957500D01*
X63741904Y-56005119D01*
X63789523Y-56100357D01*
X63789523Y-56195595D01*
X63741904Y-56338452D01*
X63170476Y-56909880D01*
X63789523Y-56909880D01*
X64170476Y-56005119D02*
X64218095Y-55957500D01*
X64313333Y-55909880D01*
X64551428Y-55909880D01*
X64646666Y-55957500D01*
X64694285Y-56005119D01*
X64741904Y-56100357D01*
X64741904Y-56195595D01*
X64694285Y-56338452D01*
X64122857Y-56909880D01*
X64741904Y-56909880D01*
X79725714Y-56909880D02*
X79725714Y-55909880D01*
X79963809Y-55909880D01*
X80106666Y-55957500D01*
X80201904Y-56052738D01*
X80249523Y-56147976D01*
X80297142Y-56338452D01*
X80297142Y-56481309D01*
X80249523Y-56671785D01*
X80201904Y-56767023D01*
X80106666Y-56862261D01*
X79963809Y-56909880D01*
X79725714Y-56909880D01*
X80678095Y-56005119D02*
X80725714Y-55957500D01*
X80820952Y-55909880D01*
X81059047Y-55909880D01*
X81154285Y-55957500D01*
X81201904Y-56005119D01*
X81249523Y-56100357D01*
X81249523Y-56195595D01*
X81201904Y-56338452D01*
X80630476Y-56909880D01*
X81249523Y-56909880D01*
X82201904Y-56909880D02*
X81630476Y-56909880D01*
X81916190Y-56909880D02*
X81916190Y-55909880D01*
X81820952Y-56052738D01*
X81725714Y-56147976D01*
X81630476Y-56195595D01*
X97185714Y-56909880D02*
X97185714Y-55909880D01*
X97423809Y-55909880D01*
X97566666Y-55957500D01*
X97661904Y-56052738D01*
X97709523Y-56147976D01*
X97757142Y-56338452D01*
X97757142Y-56481309D01*
X97709523Y-56671785D01*
X97661904Y-56767023D01*
X97566666Y-56862261D01*
X97423809Y-56909880D01*
X97185714Y-56909880D01*
X98138095Y-56005119D02*
X98185714Y-55957500D01*
X98280952Y-55909880D01*
X98519047Y-55909880D01*
X98614285Y-55957500D01*
X98661904Y-56005119D01*
X98709523Y-56100357D01*
X98709523Y-56195595D01*
X98661904Y-56338452D01*
X98090476Y-56909880D01*
X98709523Y-56909880D01*
X99328571Y-55909880D02*
X99423809Y-55909880D01*
X99519047Y-55957500D01*
X99566666Y-56005119D01*
X99614285Y-56100357D01*
X99661904Y-56290833D01*
X99661904Y-56528928D01*
X99614285Y-56719404D01*
X99566666Y-56814642D01*
X99519047Y-56862261D01*
X99423809Y-56909880D01*
X99328571Y-56909880D01*
X99233333Y-56862261D01*
X99185714Y-56814642D01*
X99138095Y-56719404D01*
X99090476Y-56528928D01*
X99090476Y-56290833D01*
X99138095Y-56100357D01*
X99185714Y-56005119D01*
X99233333Y-55957500D01*
X99328571Y-55909880D01*
X114645714Y-56909880D02*
X114645714Y-55909880D01*
X114883809Y-55909880D01*
X115026666Y-55957500D01*
X115121904Y-56052738D01*
X115169523Y-56147976D01*
X115217142Y-56338452D01*
X115217142Y-56481309D01*
X115169523Y-56671785D01*
X115121904Y-56767023D01*
X115026666Y-56862261D01*
X114883809Y-56909880D01*
X114645714Y-56909880D01*
X116169523Y-56909880D02*
X115598095Y-56909880D01*
X115883809Y-56909880D02*
X115883809Y-55909880D01*
X115788571Y-56052738D01*
X115693333Y-56147976D01*
X115598095Y-56195595D01*
X116645714Y-56909880D02*
X116836190Y-56909880D01*
X116931428Y-56862261D01*
X116979047Y-56814642D01*
X117074285Y-56671785D01*
X117121904Y-56481309D01*
X117121904Y-56100357D01*
X117074285Y-56005119D01*
X117026666Y-55957500D01*
X116931428Y-55909880D01*
X116740952Y-55909880D01*
X116645714Y-55957500D01*
X116598095Y-56005119D01*
X116550476Y-56100357D01*
X116550476Y-56338452D01*
X116598095Y-56433690D01*
X116645714Y-56481309D01*
X116740952Y-56528928D01*
X116931428Y-56528928D01*
X117026666Y-56481309D01*
X117074285Y-56433690D01*
X117121904Y-56338452D01*
X114645714Y-43164880D02*
X114645714Y-42164880D01*
X114883809Y-42164880D01*
X115026666Y-42212500D01*
X115121904Y-42307738D01*
X115169523Y-42402976D01*
X115217142Y-42593452D01*
X115217142Y-42736309D01*
X115169523Y-42926785D01*
X115121904Y-43022023D01*
X115026666Y-43117261D01*
X114883809Y-43164880D01*
X114645714Y-43164880D01*
X116169523Y-43164880D02*
X115598095Y-43164880D01*
X115883809Y-43164880D02*
X115883809Y-42164880D01*
X115788571Y-42307738D01*
X115693333Y-42402976D01*
X115598095Y-42450595D01*
X116740952Y-42593452D02*
X116645714Y-42545833D01*
X116598095Y-42498214D01*
X116550476Y-42402976D01*
X116550476Y-42355357D01*
X116598095Y-42260119D01*
X116645714Y-42212500D01*
X116740952Y-42164880D01*
X116931428Y-42164880D01*
X117026666Y-42212500D01*
X117074285Y-42260119D01*
X117121904Y-42355357D01*
X117121904Y-42402976D01*
X117074285Y-42498214D01*
X117026666Y-42545833D01*
X116931428Y-42593452D01*
X116740952Y-42593452D01*
X116645714Y-42641071D01*
X116598095Y-42688690D01*
X116550476Y-42783928D01*
X116550476Y-42974404D01*
X116598095Y-43069642D01*
X116645714Y-43117261D01*
X116740952Y-43164880D01*
X116931428Y-43164880D01*
X117026666Y-43117261D01*
X117074285Y-43069642D01*
X117121904Y-42974404D01*
X117121904Y-42783928D01*
X117074285Y-42688690D01*
X117026666Y-42641071D01*
X116931428Y-42593452D01*
X97185714Y-43164880D02*
X97185714Y-42164880D01*
X97423809Y-42164880D01*
X97566666Y-42212500D01*
X97661904Y-42307738D01*
X97709523Y-42402976D01*
X97757142Y-42593452D01*
X97757142Y-42736309D01*
X97709523Y-42926785D01*
X97661904Y-43022023D01*
X97566666Y-43117261D01*
X97423809Y-43164880D01*
X97185714Y-43164880D01*
X98709523Y-43164880D02*
X98138095Y-43164880D01*
X98423809Y-43164880D02*
X98423809Y-42164880D01*
X98328571Y-42307738D01*
X98233333Y-42402976D01*
X98138095Y-42450595D01*
X99042857Y-42164880D02*
X99709523Y-42164880D01*
X99280952Y-43164880D01*
X79725714Y-43164880D02*
X79725714Y-42164880D01*
X79963809Y-42164880D01*
X80106666Y-42212500D01*
X80201904Y-42307738D01*
X80249523Y-42402976D01*
X80297142Y-42593452D01*
X80297142Y-42736309D01*
X80249523Y-42926785D01*
X80201904Y-43022023D01*
X80106666Y-43117261D01*
X79963809Y-43164880D01*
X79725714Y-43164880D01*
X81249523Y-43164880D02*
X80678095Y-43164880D01*
X80963809Y-43164880D02*
X80963809Y-42164880D01*
X80868571Y-42307738D01*
X80773333Y-42402976D01*
X80678095Y-42450595D01*
X82106666Y-42164880D02*
X81916190Y-42164880D01*
X81820952Y-42212500D01*
X81773333Y-42260119D01*
X81678095Y-42402976D01*
X81630476Y-42593452D01*
X81630476Y-42974404D01*
X81678095Y-43069642D01*
X81725714Y-43117261D01*
X81820952Y-43164880D01*
X82011428Y-43164880D01*
X82106666Y-43117261D01*
X82154285Y-43069642D01*
X82201904Y-42974404D01*
X82201904Y-42736309D01*
X82154285Y-42641071D01*
X82106666Y-42593452D01*
X82011428Y-42545833D01*
X81820952Y-42545833D01*
X81725714Y-42593452D01*
X81678095Y-42641071D01*
X81630476Y-42736309D01*
X62265714Y-43164880D02*
X62265714Y-42164880D01*
X62503809Y-42164880D01*
X62646666Y-42212500D01*
X62741904Y-42307738D01*
X62789523Y-42402976D01*
X62837142Y-42593452D01*
X62837142Y-42736309D01*
X62789523Y-42926785D01*
X62741904Y-43022023D01*
X62646666Y-43117261D01*
X62503809Y-43164880D01*
X62265714Y-43164880D01*
X63789523Y-43164880D02*
X63218095Y-43164880D01*
X63503809Y-43164880D02*
X63503809Y-42164880D01*
X63408571Y-42307738D01*
X63313333Y-42402976D01*
X63218095Y-42450595D01*
X64694285Y-42164880D02*
X64218095Y-42164880D01*
X64170476Y-42641071D01*
X64218095Y-42593452D01*
X64313333Y-42545833D01*
X64551428Y-42545833D01*
X64646666Y-42593452D01*
X64694285Y-42641071D01*
X64741904Y-42736309D01*
X64741904Y-42974404D01*
X64694285Y-43069642D01*
X64646666Y-43117261D01*
X64551428Y-43164880D01*
X64313333Y-43164880D01*
X64218095Y-43117261D01*
X64170476Y-43069642D01*
X44805714Y-43164880D02*
X44805714Y-42164880D01*
X45043809Y-42164880D01*
X45186666Y-42212500D01*
X45281904Y-42307738D01*
X45329523Y-42402976D01*
X45377142Y-42593452D01*
X45377142Y-42736309D01*
X45329523Y-42926785D01*
X45281904Y-43022023D01*
X45186666Y-43117261D01*
X45043809Y-43164880D01*
X44805714Y-43164880D01*
X46329523Y-43164880D02*
X45758095Y-43164880D01*
X46043809Y-43164880D02*
X46043809Y-42164880D01*
X45948571Y-42307738D01*
X45853333Y-42402976D01*
X45758095Y-42450595D01*
X47186666Y-42498214D02*
X47186666Y-43164880D01*
X46948571Y-42117261D02*
X46710476Y-42831547D01*
X47329523Y-42831547D01*
X27345714Y-43164880D02*
X27345714Y-42164880D01*
X27583809Y-42164880D01*
X27726666Y-42212500D01*
X27821904Y-42307738D01*
X27869523Y-42402976D01*
X27917142Y-42593452D01*
X27917142Y-42736309D01*
X27869523Y-42926785D01*
X27821904Y-43022023D01*
X27726666Y-43117261D01*
X27583809Y-43164880D01*
X27345714Y-43164880D01*
X28869523Y-43164880D02*
X28298095Y-43164880D01*
X28583809Y-43164880D02*
X28583809Y-42164880D01*
X28488571Y-42307738D01*
X28393333Y-42402976D01*
X28298095Y-42450595D01*
X29202857Y-42164880D02*
X29821904Y-42164880D01*
X29488571Y-42545833D01*
X29631428Y-42545833D01*
X29726666Y-42593452D01*
X29774285Y-42641071D01*
X29821904Y-42736309D01*
X29821904Y-42974404D01*
X29774285Y-43069642D01*
X29726666Y-43117261D01*
X29631428Y-43164880D01*
X29345714Y-43164880D01*
X29250476Y-43117261D01*
X29202857Y-43069642D01*
X27345714Y-37859880D02*
X27345714Y-36859880D01*
X27583809Y-36859880D01*
X27726666Y-36907500D01*
X27821904Y-37002738D01*
X27869523Y-37097976D01*
X27917142Y-37288452D01*
X27917142Y-37431309D01*
X27869523Y-37621785D01*
X27821904Y-37717023D01*
X27726666Y-37812261D01*
X27583809Y-37859880D01*
X27345714Y-37859880D01*
X28869523Y-37859880D02*
X28298095Y-37859880D01*
X28583809Y-37859880D02*
X28583809Y-36859880D01*
X28488571Y-37002738D01*
X28393333Y-37097976D01*
X28298095Y-37145595D01*
X29250476Y-36955119D02*
X29298095Y-36907500D01*
X29393333Y-36859880D01*
X29631428Y-36859880D01*
X29726666Y-36907500D01*
X29774285Y-36955119D01*
X29821904Y-37050357D01*
X29821904Y-37145595D01*
X29774285Y-37288452D01*
X29202857Y-37859880D01*
X29821904Y-37859880D01*
X44805714Y-37859880D02*
X44805714Y-36859880D01*
X45043809Y-36859880D01*
X45186666Y-36907500D01*
X45281904Y-37002738D01*
X45329523Y-37097976D01*
X45377142Y-37288452D01*
X45377142Y-37431309D01*
X45329523Y-37621785D01*
X45281904Y-37717023D01*
X45186666Y-37812261D01*
X45043809Y-37859880D01*
X44805714Y-37859880D01*
X46329523Y-37859880D02*
X45758095Y-37859880D01*
X46043809Y-37859880D02*
X46043809Y-36859880D01*
X45948571Y-37002738D01*
X45853333Y-37097976D01*
X45758095Y-37145595D01*
X47281904Y-37859880D02*
X46710476Y-37859880D01*
X46996190Y-37859880D02*
X46996190Y-36859880D01*
X46900952Y-37002738D01*
X46805714Y-37097976D01*
X46710476Y-37145595D01*
X62265714Y-37859880D02*
X62265714Y-36859880D01*
X62503809Y-36859880D01*
X62646666Y-36907500D01*
X62741904Y-37002738D01*
X62789523Y-37097976D01*
X62837142Y-37288452D01*
X62837142Y-37431309D01*
X62789523Y-37621785D01*
X62741904Y-37717023D01*
X62646666Y-37812261D01*
X62503809Y-37859880D01*
X62265714Y-37859880D01*
X63789523Y-37859880D02*
X63218095Y-37859880D01*
X63503809Y-37859880D02*
X63503809Y-36859880D01*
X63408571Y-37002738D01*
X63313333Y-37097976D01*
X63218095Y-37145595D01*
X64408571Y-36859880D02*
X64503809Y-36859880D01*
X64599047Y-36907500D01*
X64646666Y-36955119D01*
X64694285Y-37050357D01*
X64741904Y-37240833D01*
X64741904Y-37478928D01*
X64694285Y-37669404D01*
X64646666Y-37764642D01*
X64599047Y-37812261D01*
X64503809Y-37859880D01*
X64408571Y-37859880D01*
X64313333Y-37812261D01*
X64265714Y-37764642D01*
X64218095Y-37669404D01*
X64170476Y-37478928D01*
X64170476Y-37240833D01*
X64218095Y-37050357D01*
X64265714Y-36955119D01*
X64313333Y-36907500D01*
X64408571Y-36859880D01*
X80201904Y-37859880D02*
X80201904Y-36859880D01*
X80440000Y-36859880D01*
X80582857Y-36907500D01*
X80678095Y-37002738D01*
X80725714Y-37097976D01*
X80773333Y-37288452D01*
X80773333Y-37431309D01*
X80725714Y-37621785D01*
X80678095Y-37717023D01*
X80582857Y-37812261D01*
X80440000Y-37859880D01*
X80201904Y-37859880D01*
X81249523Y-37859880D02*
X81440000Y-37859880D01*
X81535238Y-37812261D01*
X81582857Y-37764642D01*
X81678095Y-37621785D01*
X81725714Y-37431309D01*
X81725714Y-37050357D01*
X81678095Y-36955119D01*
X81630476Y-36907500D01*
X81535238Y-36859880D01*
X81344761Y-36859880D01*
X81249523Y-36907500D01*
X81201904Y-36955119D01*
X81154285Y-37050357D01*
X81154285Y-37288452D01*
X81201904Y-37383690D01*
X81249523Y-37431309D01*
X81344761Y-37478928D01*
X81535238Y-37478928D01*
X81630476Y-37431309D01*
X81678095Y-37383690D01*
X81725714Y-37288452D01*
X97661904Y-37859880D02*
X97661904Y-36859880D01*
X97900000Y-36859880D01*
X98042857Y-36907500D01*
X98138095Y-37002738D01*
X98185714Y-37097976D01*
X98233333Y-37288452D01*
X98233333Y-37431309D01*
X98185714Y-37621785D01*
X98138095Y-37717023D01*
X98042857Y-37812261D01*
X97900000Y-37859880D01*
X97661904Y-37859880D01*
X98804761Y-37288452D02*
X98709523Y-37240833D01*
X98661904Y-37193214D01*
X98614285Y-37097976D01*
X98614285Y-37050357D01*
X98661904Y-36955119D01*
X98709523Y-36907500D01*
X98804761Y-36859880D01*
X98995238Y-36859880D01*
X99090476Y-36907500D01*
X99138095Y-36955119D01*
X99185714Y-37050357D01*
X99185714Y-37097976D01*
X99138095Y-37193214D01*
X99090476Y-37240833D01*
X98995238Y-37288452D01*
X98804761Y-37288452D01*
X98709523Y-37336071D01*
X98661904Y-37383690D01*
X98614285Y-37478928D01*
X98614285Y-37669404D01*
X98661904Y-37764642D01*
X98709523Y-37812261D01*
X98804761Y-37859880D01*
X98995238Y-37859880D01*
X99090476Y-37812261D01*
X99138095Y-37764642D01*
X99185714Y-37669404D01*
X99185714Y-37478928D01*
X99138095Y-37383690D01*
X99090476Y-37336071D01*
X98995238Y-37288452D01*
X115121904Y-37859880D02*
X115121904Y-36859880D01*
X115360000Y-36859880D01*
X115502857Y-36907500D01*
X115598095Y-37002738D01*
X115645714Y-37097976D01*
X115693333Y-37288452D01*
X115693333Y-37431309D01*
X115645714Y-37621785D01*
X115598095Y-37717023D01*
X115502857Y-37812261D01*
X115360000Y-37859880D01*
X115121904Y-37859880D01*
X116026666Y-36859880D02*
X116693333Y-36859880D01*
X116264761Y-37859880D01*
X115121904Y-24114880D02*
X115121904Y-23114880D01*
X115360000Y-23114880D01*
X115502857Y-23162500D01*
X115598095Y-23257738D01*
X115645714Y-23352976D01*
X115693333Y-23543452D01*
X115693333Y-23686309D01*
X115645714Y-23876785D01*
X115598095Y-23972023D01*
X115502857Y-24067261D01*
X115360000Y-24114880D01*
X115121904Y-24114880D01*
X116550476Y-23114880D02*
X116360000Y-23114880D01*
X116264761Y-23162500D01*
X116217142Y-23210119D01*
X116121904Y-23352976D01*
X116074285Y-23543452D01*
X116074285Y-23924404D01*
X116121904Y-24019642D01*
X116169523Y-24067261D01*
X116264761Y-24114880D01*
X116455238Y-24114880D01*
X116550476Y-24067261D01*
X116598095Y-24019642D01*
X116645714Y-23924404D01*
X116645714Y-23686309D01*
X116598095Y-23591071D01*
X116550476Y-23543452D01*
X116455238Y-23495833D01*
X116264761Y-23495833D01*
X116169523Y-23543452D01*
X116121904Y-23591071D01*
X116074285Y-23686309D01*
X97661904Y-24114880D02*
X97661904Y-23114880D01*
X97900000Y-23114880D01*
X98042857Y-23162500D01*
X98138095Y-23257738D01*
X98185714Y-23352976D01*
X98233333Y-23543452D01*
X98233333Y-23686309D01*
X98185714Y-23876785D01*
X98138095Y-23972023D01*
X98042857Y-24067261D01*
X97900000Y-24114880D01*
X97661904Y-24114880D01*
X99138095Y-23114880D02*
X98661904Y-23114880D01*
X98614285Y-23591071D01*
X98661904Y-23543452D01*
X98757142Y-23495833D01*
X98995238Y-23495833D01*
X99090476Y-23543452D01*
X99138095Y-23591071D01*
X99185714Y-23686309D01*
X99185714Y-23924404D01*
X99138095Y-24019642D01*
X99090476Y-24067261D01*
X98995238Y-24114880D01*
X98757142Y-24114880D01*
X98661904Y-24067261D01*
X98614285Y-24019642D01*
X80201904Y-24114880D02*
X80201904Y-23114880D01*
X80440000Y-23114880D01*
X80582857Y-23162500D01*
X80678095Y-23257738D01*
X80725714Y-23352976D01*
X80773333Y-23543452D01*
X80773333Y-23686309D01*
X80725714Y-23876785D01*
X80678095Y-23972023D01*
X80582857Y-24067261D01*
X80440000Y-24114880D01*
X80201904Y-24114880D01*
X81630476Y-23448214D02*
X81630476Y-24114880D01*
X81392380Y-23067261D02*
X81154285Y-23781547D01*
X81773333Y-23781547D01*
X62741904Y-24114880D02*
X62741904Y-23114880D01*
X62980000Y-23114880D01*
X63122857Y-23162500D01*
X63218095Y-23257738D01*
X63265714Y-23352976D01*
X63313333Y-23543452D01*
X63313333Y-23686309D01*
X63265714Y-23876785D01*
X63218095Y-23972023D01*
X63122857Y-24067261D01*
X62980000Y-24114880D01*
X62741904Y-24114880D01*
X63646666Y-23114880D02*
X64265714Y-23114880D01*
X63932380Y-23495833D01*
X64075238Y-23495833D01*
X64170476Y-23543452D01*
X64218095Y-23591071D01*
X64265714Y-23686309D01*
X64265714Y-23924404D01*
X64218095Y-24019642D01*
X64170476Y-24067261D01*
X64075238Y-24114880D01*
X63789523Y-24114880D01*
X63694285Y-24067261D01*
X63646666Y-24019642D01*
X45281904Y-24114880D02*
X45281904Y-23114880D01*
X45520000Y-23114880D01*
X45662857Y-23162500D01*
X45758095Y-23257738D01*
X45805714Y-23352976D01*
X45853333Y-23543452D01*
X45853333Y-23686309D01*
X45805714Y-23876785D01*
X45758095Y-23972023D01*
X45662857Y-24067261D01*
X45520000Y-24114880D01*
X45281904Y-24114880D01*
X46234285Y-23210119D02*
X46281904Y-23162500D01*
X46377142Y-23114880D01*
X46615238Y-23114880D01*
X46710476Y-23162500D01*
X46758095Y-23210119D01*
X46805714Y-23305357D01*
X46805714Y-23400595D01*
X46758095Y-23543452D01*
X46186666Y-24114880D01*
X46805714Y-24114880D01*
X27821904Y-24114880D02*
X27821904Y-23114880D01*
X28060000Y-23114880D01*
X28202857Y-23162500D01*
X28298095Y-23257738D01*
X28345714Y-23352976D01*
X28393333Y-23543452D01*
X28393333Y-23686309D01*
X28345714Y-23876785D01*
X28298095Y-23972023D01*
X28202857Y-24067261D01*
X28060000Y-24114880D01*
X27821904Y-24114880D01*
X29345714Y-24114880D02*
X28774285Y-24114880D01*
X29060000Y-24114880D02*
X29060000Y-23114880D01*
X28964761Y-23257738D01*
X28869523Y-23352976D01*
X28774285Y-23400595D01*
M02*
