G04 #@! TF.GenerationSoftware,KiCad,Pcbnew,(5.1.4-0-10_14)*
G04 #@! TF.CreationDate,2020-05-02T20:10:57-07:00*
G04 #@! TF.ProjectId,LED_Board_s_,4c45445f-426f-4617-9264-5f735f2e6b69,rev?*
G04 #@! TF.SameCoordinates,Original*
G04 #@! TF.FileFunction,Soldermask,Top*
G04 #@! TF.FilePolarity,Negative*
%FSLAX46Y46*%
G04 Gerber Fmt 4.6, Leading zero omitted, Abs format (unit mm)*
G04 Created by KiCad (PCBNEW (5.1.4-0-10_14)) date 2020-05-02 20:10:57*
%MOMM*%
%LPD*%
G04 APERTURE LIST*
%ADD10C,7.000000*%
%ADD11C,1.000000*%
%ADD12O,1.700000X1.700000*%
%ADD13R,1.700000X1.700000*%
%ADD14C,0.800000*%
%ADD15R,0.500000X1.480000*%
%ADD16R,0.500000X1.000000*%
%ADD17R,0.800000X0.500000*%
%ADD18R,0.800000X0.300000*%
G04 APERTURE END LIST*
D10*
X124460001Y-25909999D03*
D11*
X124410000Y-83960000D03*
X18210000Y-33890000D03*
D12*
X19870000Y-56940000D03*
X19870000Y-59480000D03*
X19870000Y-62020000D03*
D13*
X19870000Y-64560000D03*
D10*
X124460001Y-92310001D03*
D14*
X21816154Y-90453846D03*
X19959999Y-89685001D03*
X18103844Y-90453846D03*
X17334999Y-92310001D03*
X18103844Y-94166156D03*
X19959999Y-94935001D03*
X21816154Y-94166156D03*
X22584999Y-92310001D03*
D10*
X19959999Y-92310001D03*
X19959999Y-25909999D03*
D15*
X28560000Y-93037500D03*
D16*
X28560000Y-91617500D03*
D17*
X29410000Y-91547500D03*
X29410000Y-93347500D03*
D18*
X29410000Y-92447500D03*
D17*
X27710000Y-93347500D03*
D18*
X27710000Y-92447500D03*
D17*
X27710000Y-91547500D03*
D15*
X46020000Y-93037500D03*
D16*
X46020000Y-91617500D03*
D17*
X46870000Y-91547500D03*
X46870000Y-93347500D03*
D18*
X46870000Y-92447500D03*
D17*
X45170000Y-93347500D03*
D18*
X45170000Y-92447500D03*
D17*
X45170000Y-91547500D03*
D15*
X63480000Y-93037500D03*
D16*
X63480000Y-91617500D03*
D17*
X64330000Y-91547500D03*
X64330000Y-93347500D03*
D18*
X64330000Y-92447500D03*
D17*
X62630000Y-93347500D03*
D18*
X62630000Y-92447500D03*
D17*
X62630000Y-91547500D03*
D15*
X80940000Y-93037500D03*
D16*
X80940000Y-91617500D03*
D17*
X81790000Y-91547500D03*
X81790000Y-93347500D03*
D18*
X81790000Y-92447500D03*
D17*
X80090000Y-93347500D03*
D18*
X80090000Y-92447500D03*
D17*
X80090000Y-91547500D03*
D15*
X98400000Y-93037500D03*
D16*
X98400000Y-91617500D03*
D17*
X99250000Y-91547500D03*
X99250000Y-93347500D03*
D18*
X99250000Y-92447500D03*
D17*
X97550000Y-93347500D03*
D18*
X97550000Y-92447500D03*
D17*
X97550000Y-91547500D03*
D15*
X115860000Y-93037500D03*
D16*
X115860000Y-91617500D03*
D17*
X116710000Y-91547500D03*
X116710000Y-93347500D03*
D18*
X116710000Y-92447500D03*
D17*
X115010000Y-93347500D03*
D18*
X115010000Y-92447500D03*
D17*
X115010000Y-91547500D03*
D15*
X115860000Y-82332500D03*
D16*
X115860000Y-83752500D03*
D17*
X115010000Y-83822500D03*
X115010000Y-82022500D03*
D18*
X115010000Y-82922500D03*
D17*
X116710000Y-82022500D03*
D18*
X116710000Y-82922500D03*
D17*
X116710000Y-83822500D03*
D15*
X98400000Y-82332500D03*
D16*
X98400000Y-83752500D03*
D17*
X97550000Y-83822500D03*
X97550000Y-82022500D03*
D18*
X97550000Y-82922500D03*
D17*
X99250000Y-82022500D03*
D18*
X99250000Y-82922500D03*
D17*
X99250000Y-83822500D03*
D15*
X80940000Y-82332500D03*
D16*
X80940000Y-83752500D03*
D17*
X80090000Y-83822500D03*
X80090000Y-82022500D03*
D18*
X80090000Y-82922500D03*
D17*
X81790000Y-82022500D03*
D18*
X81790000Y-82922500D03*
D17*
X81790000Y-83822500D03*
D15*
X63480000Y-82332500D03*
D16*
X63480000Y-83752500D03*
D17*
X62630000Y-83822500D03*
X62630000Y-82022500D03*
D18*
X62630000Y-82922500D03*
D17*
X64330000Y-82022500D03*
D18*
X64330000Y-82922500D03*
D17*
X64330000Y-83822500D03*
D15*
X46020000Y-82332500D03*
D16*
X46020000Y-83752500D03*
D17*
X45170000Y-83822500D03*
X45170000Y-82022500D03*
D18*
X45170000Y-82922500D03*
D17*
X46870000Y-82022500D03*
D18*
X46870000Y-82922500D03*
D17*
X46870000Y-83822500D03*
D15*
X28560000Y-82332500D03*
D16*
X28560000Y-83752500D03*
D17*
X27710000Y-83822500D03*
X27710000Y-82022500D03*
D18*
X27710000Y-82922500D03*
D17*
X29410000Y-82022500D03*
D18*
X29410000Y-82922500D03*
D17*
X29410000Y-83822500D03*
D15*
X28560000Y-73987500D03*
D16*
X28560000Y-72567500D03*
D17*
X29410000Y-72497500D03*
X29410000Y-74297500D03*
D18*
X29410000Y-73397500D03*
D17*
X27710000Y-74297500D03*
D18*
X27710000Y-73397500D03*
D17*
X27710000Y-72497500D03*
D15*
X46020000Y-73987500D03*
D16*
X46020000Y-72567500D03*
D17*
X46870000Y-72497500D03*
X46870000Y-74297500D03*
D18*
X46870000Y-73397500D03*
D17*
X45170000Y-74297500D03*
D18*
X45170000Y-73397500D03*
D17*
X45170000Y-72497500D03*
D15*
X63480000Y-73987500D03*
D16*
X63480000Y-72567500D03*
D17*
X64330000Y-72497500D03*
X64330000Y-74297500D03*
D18*
X64330000Y-73397500D03*
D17*
X62630000Y-74297500D03*
D18*
X62630000Y-73397500D03*
D17*
X62630000Y-72497500D03*
D15*
X80940000Y-73987500D03*
D16*
X80940000Y-72567500D03*
D17*
X81790000Y-72497500D03*
X81790000Y-74297500D03*
D18*
X81790000Y-73397500D03*
D17*
X80090000Y-74297500D03*
D18*
X80090000Y-73397500D03*
D17*
X80090000Y-72497500D03*
D15*
X98400000Y-73987500D03*
D16*
X98400000Y-72567500D03*
D17*
X99250000Y-72497500D03*
X99250000Y-74297500D03*
D18*
X99250000Y-73397500D03*
D17*
X97550000Y-74297500D03*
D18*
X97550000Y-73397500D03*
D17*
X97550000Y-72497500D03*
D15*
X115860000Y-73987500D03*
D16*
X115860000Y-72567500D03*
D17*
X116710000Y-72497500D03*
X116710000Y-74297500D03*
D18*
X116710000Y-73397500D03*
D17*
X115010000Y-74297500D03*
D18*
X115010000Y-73397500D03*
D17*
X115010000Y-72497500D03*
D15*
X115860000Y-63282500D03*
D16*
X115860000Y-64702500D03*
D17*
X115010000Y-64772500D03*
X115010000Y-62972500D03*
D18*
X115010000Y-63872500D03*
D17*
X116710000Y-62972500D03*
D18*
X116710000Y-63872500D03*
D17*
X116710000Y-64772500D03*
D15*
X98400000Y-63282500D03*
D16*
X98400000Y-64702500D03*
D17*
X97550000Y-64772500D03*
X97550000Y-62972500D03*
D18*
X97550000Y-63872500D03*
D17*
X99250000Y-62972500D03*
D18*
X99250000Y-63872500D03*
D17*
X99250000Y-64772500D03*
D15*
X80940000Y-63282500D03*
D16*
X80940000Y-64702500D03*
D17*
X80090000Y-64772500D03*
X80090000Y-62972500D03*
D18*
X80090000Y-63872500D03*
D17*
X81790000Y-62972500D03*
D18*
X81790000Y-63872500D03*
D17*
X81790000Y-64772500D03*
D15*
X63480000Y-63282500D03*
D16*
X63480000Y-64702500D03*
D17*
X62630000Y-64772500D03*
X62630000Y-62972500D03*
D18*
X62630000Y-63872500D03*
D17*
X64330000Y-62972500D03*
D18*
X64330000Y-63872500D03*
D17*
X64330000Y-64772500D03*
D15*
X46020000Y-63282500D03*
D16*
X46020000Y-64702500D03*
D17*
X45170000Y-64772500D03*
X45170000Y-62972500D03*
D18*
X45170000Y-63872500D03*
D17*
X46870000Y-62972500D03*
D18*
X46870000Y-63872500D03*
D17*
X46870000Y-64772500D03*
D15*
X28560000Y-63282500D03*
D16*
X28560000Y-64702500D03*
D17*
X27710000Y-64772500D03*
X27710000Y-62972500D03*
D18*
X27710000Y-63872500D03*
D17*
X29410000Y-62972500D03*
D18*
X29410000Y-63872500D03*
D17*
X29410000Y-64772500D03*
D15*
X28560000Y-54937500D03*
D16*
X28560000Y-53517500D03*
D17*
X29410000Y-53447500D03*
X29410000Y-55247500D03*
D18*
X29410000Y-54347500D03*
D17*
X27710000Y-55247500D03*
D18*
X27710000Y-54347500D03*
D17*
X27710000Y-53447500D03*
D15*
X46020000Y-54937500D03*
D16*
X46020000Y-53517500D03*
D17*
X46870000Y-53447500D03*
X46870000Y-55247500D03*
D18*
X46870000Y-54347500D03*
D17*
X45170000Y-55247500D03*
D18*
X45170000Y-54347500D03*
D17*
X45170000Y-53447500D03*
D15*
X63480000Y-54937500D03*
D16*
X63480000Y-53517500D03*
D17*
X64330000Y-53447500D03*
X64330000Y-55247500D03*
D18*
X64330000Y-54347500D03*
D17*
X62630000Y-55247500D03*
D18*
X62630000Y-54347500D03*
D17*
X62630000Y-53447500D03*
D15*
X80940000Y-54937500D03*
D16*
X80940000Y-53517500D03*
D17*
X81790000Y-53447500D03*
X81790000Y-55247500D03*
D18*
X81790000Y-54347500D03*
D17*
X80090000Y-55247500D03*
D18*
X80090000Y-54347500D03*
D17*
X80090000Y-53447500D03*
D15*
X98400000Y-54937500D03*
D16*
X98400000Y-53517500D03*
D17*
X99250000Y-53447500D03*
X99250000Y-55247500D03*
D18*
X99250000Y-54347500D03*
D17*
X97550000Y-55247500D03*
D18*
X97550000Y-54347500D03*
D17*
X97550000Y-53447500D03*
D15*
X115860000Y-54937500D03*
D16*
X115860000Y-53517500D03*
D17*
X116710000Y-53447500D03*
X116710000Y-55247500D03*
D18*
X116710000Y-54347500D03*
D17*
X115010000Y-55247500D03*
D18*
X115010000Y-54347500D03*
D17*
X115010000Y-53447500D03*
D15*
X115860000Y-44232500D03*
D16*
X115860000Y-45652500D03*
D17*
X115010000Y-45722500D03*
X115010000Y-43922500D03*
D18*
X115010000Y-44822500D03*
D17*
X116710000Y-43922500D03*
D18*
X116710000Y-44822500D03*
D17*
X116710000Y-45722500D03*
D15*
X98400000Y-44232500D03*
D16*
X98400000Y-45652500D03*
D17*
X97550000Y-45722500D03*
X97550000Y-43922500D03*
D18*
X97550000Y-44822500D03*
D17*
X99250000Y-43922500D03*
D18*
X99250000Y-44822500D03*
D17*
X99250000Y-45722500D03*
D15*
X80940000Y-44232500D03*
D16*
X80940000Y-45652500D03*
D17*
X80090000Y-45722500D03*
X80090000Y-43922500D03*
D18*
X80090000Y-44822500D03*
D17*
X81790000Y-43922500D03*
D18*
X81790000Y-44822500D03*
D17*
X81790000Y-45722500D03*
D15*
X63480000Y-44232500D03*
D16*
X63480000Y-45652500D03*
D17*
X62630000Y-45722500D03*
X62630000Y-43922500D03*
D18*
X62630000Y-44822500D03*
D17*
X64330000Y-43922500D03*
D18*
X64330000Y-44822500D03*
D17*
X64330000Y-45722500D03*
D15*
X46020000Y-44232500D03*
D16*
X46020000Y-45652500D03*
D17*
X45170000Y-45722500D03*
X45170000Y-43922500D03*
D18*
X45170000Y-44822500D03*
D17*
X46870000Y-43922500D03*
D18*
X46870000Y-44822500D03*
D17*
X46870000Y-45722500D03*
D15*
X28560000Y-44232500D03*
D16*
X28560000Y-45652500D03*
D17*
X27710000Y-45722500D03*
X27710000Y-43922500D03*
D18*
X27710000Y-44822500D03*
D17*
X29410000Y-43922500D03*
D18*
X29410000Y-44822500D03*
D17*
X29410000Y-45722500D03*
D15*
X28560000Y-35887500D03*
D16*
X28560000Y-34467500D03*
D17*
X29410000Y-34397500D03*
X29410000Y-36197500D03*
D18*
X29410000Y-35297500D03*
D17*
X27710000Y-36197500D03*
D18*
X27710000Y-35297500D03*
D17*
X27710000Y-34397500D03*
D15*
X46020000Y-35887500D03*
D16*
X46020000Y-34467500D03*
D17*
X46870000Y-34397500D03*
X46870000Y-36197500D03*
D18*
X46870000Y-35297500D03*
D17*
X45170000Y-36197500D03*
D18*
X45170000Y-35297500D03*
D17*
X45170000Y-34397500D03*
D15*
X63480000Y-35887500D03*
D16*
X63480000Y-34467500D03*
D17*
X64330000Y-34397500D03*
X64330000Y-36197500D03*
D18*
X64330000Y-35297500D03*
D17*
X62630000Y-36197500D03*
D18*
X62630000Y-35297500D03*
D17*
X62630000Y-34397500D03*
D15*
X80940000Y-35887500D03*
D16*
X80940000Y-34467500D03*
D17*
X81790000Y-34397500D03*
X81790000Y-36197500D03*
D18*
X81790000Y-35297500D03*
D17*
X80090000Y-36197500D03*
D18*
X80090000Y-35297500D03*
D17*
X80090000Y-34397500D03*
D15*
X98400000Y-35887500D03*
D16*
X98400000Y-34467500D03*
D17*
X99250000Y-34397500D03*
X99250000Y-36197500D03*
D18*
X99250000Y-35297500D03*
D17*
X97550000Y-36197500D03*
D18*
X97550000Y-35297500D03*
D17*
X97550000Y-34397500D03*
D15*
X115860000Y-35887500D03*
D16*
X115860000Y-34467500D03*
D17*
X116710000Y-34397500D03*
X116710000Y-36197500D03*
D18*
X116710000Y-35297500D03*
D17*
X115010000Y-36197500D03*
D18*
X115010000Y-35297500D03*
D17*
X115010000Y-34397500D03*
D15*
X115860000Y-25182500D03*
D16*
X115860000Y-26602500D03*
D17*
X115010000Y-26672500D03*
X115010000Y-24872500D03*
D18*
X115010000Y-25772500D03*
D17*
X116710000Y-24872500D03*
D18*
X116710000Y-25772500D03*
D17*
X116710000Y-26672500D03*
D15*
X98400000Y-25182500D03*
D16*
X98400000Y-26602500D03*
D17*
X97550000Y-26672500D03*
X97550000Y-24872500D03*
D18*
X97550000Y-25772500D03*
D17*
X99250000Y-24872500D03*
D18*
X99250000Y-25772500D03*
D17*
X99250000Y-26672500D03*
D15*
X80940000Y-25182500D03*
D16*
X80940000Y-26602500D03*
D17*
X80090000Y-26672500D03*
X80090000Y-24872500D03*
D18*
X80090000Y-25772500D03*
D17*
X81790000Y-24872500D03*
D18*
X81790000Y-25772500D03*
D17*
X81790000Y-26672500D03*
D15*
X63480000Y-25182500D03*
D16*
X63480000Y-26602500D03*
D17*
X62630000Y-26672500D03*
X62630000Y-24872500D03*
D18*
X62630000Y-25772500D03*
D17*
X64330000Y-24872500D03*
D18*
X64330000Y-25772500D03*
D17*
X64330000Y-26672500D03*
D15*
X46020000Y-25182500D03*
D16*
X46020000Y-26602500D03*
D17*
X45170000Y-26672500D03*
X45170000Y-24872500D03*
D18*
X45170000Y-25772500D03*
D17*
X46870000Y-24872500D03*
D18*
X46870000Y-25772500D03*
D17*
X46870000Y-26672500D03*
D15*
X28560000Y-25182500D03*
D16*
X28560000Y-26602500D03*
D17*
X27710000Y-26672500D03*
X27710000Y-24872500D03*
D18*
X27710000Y-25772500D03*
D17*
X29410000Y-24872500D03*
D18*
X29410000Y-25772500D03*
D17*
X29410000Y-26672500D03*
M02*
