G04 #@! TF.GenerationSoftware,KiCad,Pcbnew,(5.1.4-0-10_14)*
G04 #@! TF.CreationDate,2020-05-02T20:10:57-07:00*
G04 #@! TF.ProjectId,LED_Board_s_,4c45445f-426f-4617-9264-5f735f2e6b69,rev?*
G04 #@! TF.SameCoordinates,Original*
G04 #@! TF.FileFunction,Copper,L2,Bot*
G04 #@! TF.FilePolarity,Positive*
%FSLAX46Y46*%
G04 Gerber Fmt 4.6, Leading zero omitted, Abs format (unit mm)*
G04 Created by KiCad (PCBNEW (5.1.4-0-10_14)) date 2020-05-02 20:10:57*
%MOMM*%
%LPD*%
G04 APERTURE LIST*
%ADD10C,7.000000*%
%ADD11O,1.700000X1.700000*%
%ADD12R,1.700000X1.700000*%
%ADD13C,0.800000*%
%ADD14C,0.254000*%
G04 APERTURE END LIST*
D10*
X124460001Y-25909999D03*
D11*
X19870000Y-56940000D03*
X19870000Y-59480000D03*
X19870000Y-62020000D03*
D12*
X19870000Y-64560000D03*
D10*
X124460001Y-92310001D03*
D13*
X21816154Y-90453846D03*
X19959999Y-89685001D03*
X18103844Y-90453846D03*
X17334999Y-92310001D03*
X18103844Y-94166156D03*
X19959999Y-94935001D03*
X21816154Y-94166156D03*
X22584999Y-92310001D03*
D10*
X19959999Y-92310001D03*
X19959999Y-25909999D03*
D13*
X27900000Y-23150000D03*
X31400000Y-23150000D03*
X34900000Y-23150000D03*
X38400000Y-23150000D03*
X41900000Y-23150000D03*
X45400000Y-23150000D03*
X48900000Y-23150000D03*
X52400000Y-23150000D03*
X55900000Y-23150000D03*
X59400000Y-23150000D03*
X62900000Y-23150000D03*
X66400000Y-23150000D03*
X69900000Y-23150000D03*
X73400000Y-23150000D03*
X76900000Y-23150000D03*
X80400000Y-23150000D03*
X83900000Y-23150000D03*
X87400000Y-23150000D03*
X90900000Y-23150000D03*
X94400000Y-23150000D03*
X97900000Y-23150000D03*
X101400000Y-23150000D03*
X104900000Y-23150000D03*
X108400000Y-23150000D03*
X111900000Y-23150000D03*
X115400000Y-23150000D03*
X118900000Y-23150000D03*
X27520000Y-95250000D03*
X31020000Y-95250000D03*
X34520000Y-95250000D03*
X38020000Y-95250000D03*
X41520000Y-95250000D03*
X45020000Y-95250000D03*
X48520000Y-95250000D03*
X52020000Y-95250000D03*
X55520000Y-95250000D03*
X59020000Y-95250000D03*
X62520000Y-95250000D03*
X66020000Y-95250000D03*
X69520000Y-95250000D03*
X73020000Y-95250000D03*
X76520000Y-95250000D03*
X80020000Y-95250000D03*
X83520000Y-95250000D03*
X87020000Y-95250000D03*
X90520000Y-95250000D03*
X94020000Y-95250000D03*
X97520000Y-95250000D03*
X101020000Y-95250000D03*
X104520000Y-95250000D03*
X108020000Y-95250000D03*
X111520000Y-95250000D03*
X115020000Y-95250000D03*
X118520000Y-95250000D03*
X33430000Y-38650000D03*
X43930000Y-38650000D03*
X61430000Y-38650000D03*
X40430000Y-38650000D03*
X54430000Y-38650000D03*
X47430000Y-38650000D03*
X36930000Y-38650000D03*
X57930000Y-38650000D03*
X50930000Y-38650000D03*
X29930000Y-38650000D03*
X124430000Y-41650000D03*
X113930000Y-41650000D03*
X110430000Y-41650000D03*
X106930000Y-41650000D03*
X120930000Y-41650000D03*
X117430000Y-41650000D03*
X99930000Y-41650000D03*
X89430000Y-41650000D03*
X85930000Y-41650000D03*
X82430000Y-41650000D03*
X92930000Y-41650000D03*
X103430000Y-41650000D03*
X96430000Y-41650000D03*
X89430000Y-38650000D03*
X103430000Y-38650000D03*
X61430000Y-41650000D03*
X113930000Y-38650000D03*
X92930000Y-38650000D03*
X54430000Y-41650000D03*
X99930000Y-38650000D03*
X75430000Y-38650000D03*
X68430000Y-38650000D03*
X50930000Y-41650000D03*
X33430000Y-41650000D03*
X64930000Y-38650000D03*
X117430000Y-38650000D03*
X43930000Y-41650000D03*
X29930000Y-41650000D03*
X106930000Y-38650000D03*
X110430000Y-38650000D03*
X78930000Y-38650000D03*
X40430000Y-41650000D03*
X47430000Y-41650000D03*
X71930000Y-38650000D03*
X36930000Y-41650000D03*
X85930000Y-38650000D03*
X124430000Y-38650000D03*
X96430000Y-38650000D03*
X57930000Y-41650000D03*
X120930000Y-38650000D03*
X82430000Y-38650000D03*
X75430000Y-41650000D03*
X68430000Y-41650000D03*
X71930000Y-41650000D03*
X78930000Y-41650000D03*
X64930000Y-41650000D03*
X33720000Y-57950000D03*
X44220000Y-57950000D03*
X61720000Y-57950000D03*
X40720000Y-57950000D03*
X54720000Y-57950000D03*
X47720000Y-57950000D03*
X37220000Y-57950000D03*
X58220000Y-57950000D03*
X51220000Y-57950000D03*
X30220000Y-57950000D03*
X124720000Y-60950000D03*
X114220000Y-60950000D03*
X110720000Y-60950000D03*
X107220000Y-60950000D03*
X121220000Y-60950000D03*
X117720000Y-60950000D03*
X100220000Y-60950000D03*
X89720000Y-60950000D03*
X86220000Y-60950000D03*
X82720000Y-60950000D03*
X93220000Y-60950000D03*
X103720000Y-60950000D03*
X96720000Y-60950000D03*
X89720000Y-57950000D03*
X103720000Y-57950000D03*
X61720000Y-60950000D03*
X114220000Y-57950000D03*
X93220000Y-57950000D03*
X54720000Y-60950000D03*
X100220000Y-57950000D03*
X75720000Y-57950000D03*
X68720000Y-57950000D03*
X51220000Y-60950000D03*
X33720000Y-60950000D03*
X65220000Y-57950000D03*
X117720000Y-57950000D03*
X44220000Y-60950000D03*
X30220000Y-60950000D03*
X107220000Y-57950000D03*
X110720000Y-57950000D03*
X79220000Y-57950000D03*
X40720000Y-60950000D03*
X47720000Y-60950000D03*
X72220000Y-57950000D03*
X37220000Y-60950000D03*
X86220000Y-57950000D03*
X124720000Y-57950000D03*
X96720000Y-57950000D03*
X58220000Y-60950000D03*
X121220000Y-57950000D03*
X82720000Y-57950000D03*
X75720000Y-60950000D03*
X68720000Y-60950000D03*
X72220000Y-60950000D03*
X79220000Y-60950000D03*
X65220000Y-60950000D03*
X34590000Y-76670000D03*
X45090000Y-76670000D03*
X62590000Y-76670000D03*
X41590000Y-76670000D03*
X55590000Y-76670000D03*
X48590000Y-76670000D03*
X38090000Y-76670000D03*
X59090000Y-76670000D03*
X52090000Y-76670000D03*
X31090000Y-76670000D03*
X125590000Y-79670000D03*
X115090000Y-79670000D03*
X111590000Y-79670000D03*
X108090000Y-79670000D03*
X122090000Y-79670000D03*
X118590000Y-79670000D03*
X101090000Y-79670000D03*
X90590000Y-79670000D03*
X87090000Y-79670000D03*
X83590000Y-79670000D03*
X94090000Y-79670000D03*
X104590000Y-79670000D03*
X97590000Y-79670000D03*
X90590000Y-76670000D03*
X104590000Y-76670000D03*
X62590000Y-79670000D03*
X115090000Y-76670000D03*
X94090000Y-76670000D03*
X55590000Y-79670000D03*
X101090000Y-76670000D03*
X76590000Y-76670000D03*
X69590000Y-76670000D03*
X52090000Y-79670000D03*
X34590000Y-79670000D03*
X66090000Y-76670000D03*
X118590000Y-76670000D03*
X45090000Y-79670000D03*
X31090000Y-79670000D03*
X108090000Y-76670000D03*
X111590000Y-76670000D03*
X80090000Y-76670000D03*
X41590000Y-79670000D03*
X48590000Y-79670000D03*
X73090000Y-76670000D03*
X38090000Y-79670000D03*
X87090000Y-76670000D03*
X125590000Y-76670000D03*
X97590000Y-76670000D03*
X59090000Y-79670000D03*
X122090000Y-76670000D03*
X83590000Y-76670000D03*
X76590000Y-79670000D03*
X69590000Y-79670000D03*
X73090000Y-79670000D03*
X80090000Y-79670000D03*
X66090000Y-79670000D03*
X116710000Y-32430000D03*
X116710000Y-51920000D03*
X116710000Y-89360000D03*
X116710000Y-71080000D03*
X29410000Y-32150000D03*
X46870000Y-32150000D03*
X64330000Y-32150000D03*
X81790000Y-32150000D03*
X99250000Y-32150000D03*
X29410000Y-51200000D03*
X46870000Y-51200000D03*
X64330000Y-51200000D03*
X81790000Y-51200000D03*
X99250000Y-51200000D03*
X29410000Y-70250000D03*
X46870000Y-70250000D03*
X64330000Y-70250000D03*
X81790000Y-70250000D03*
X99250000Y-70250000D03*
X29410000Y-89300000D03*
X46870000Y-89300000D03*
X64330000Y-89300000D03*
X81790000Y-89300000D03*
X99250000Y-89300000D03*
X27710000Y-48200000D03*
X45170000Y-48200000D03*
X62630000Y-48200000D03*
X80090000Y-48200000D03*
X97550000Y-48200000D03*
X27710000Y-67250000D03*
X45170000Y-67250000D03*
X62630000Y-67250000D03*
X80090000Y-67250000D03*
X97550000Y-67250000D03*
X27710000Y-86300000D03*
X45170000Y-86300000D03*
X62630000Y-86300000D03*
X80090000Y-86300000D03*
X97550000Y-86300000D03*
X27690000Y-29210000D03*
X45150000Y-29210000D03*
X62610000Y-29210000D03*
X80070000Y-29210000D03*
X97530000Y-29210000D03*
X114990000Y-29210000D03*
X114990000Y-48260000D03*
X114990000Y-67310000D03*
X114990000Y-86360000D03*
D14*
G36*
X124327268Y-21745001D02*
G01*
X124468627Y-21757617D01*
X123684883Y-21827930D01*
X122903404Y-22057584D01*
X122181745Y-22435284D01*
X122121635Y-22475449D01*
X121725451Y-22995844D01*
X124460001Y-25730394D01*
X124474144Y-25716252D01*
X124653749Y-25895857D01*
X124639606Y-25909999D01*
X127374156Y-28644549D01*
X127894551Y-28248365D01*
X128284749Y-27533387D01*
X128527965Y-26756023D01*
X128614852Y-25946146D01*
X128557783Y-25310022D01*
X128577714Y-25393040D01*
X128625001Y-26036977D01*
X128625000Y-59146104D01*
X128625001Y-59146114D01*
X128624999Y-92177269D01*
X128595001Y-92513390D01*
X128595001Y-91902739D01*
X128436095Y-91103866D01*
X128124390Y-90351344D01*
X127671865Y-89674092D01*
X127095910Y-89098137D01*
X126418658Y-88645612D01*
X125666136Y-88333907D01*
X124867263Y-88175001D01*
X124052739Y-88175001D01*
X123253866Y-88333907D01*
X122501344Y-88645612D01*
X121824092Y-89098137D01*
X121248137Y-89674092D01*
X120795612Y-90351344D01*
X120483907Y-91103866D01*
X120325001Y-91902739D01*
X120325001Y-92717263D01*
X120483907Y-93516136D01*
X120795612Y-94268658D01*
X121248137Y-94945910D01*
X121824092Y-95521865D01*
X122501344Y-95974390D01*
X123253866Y-96286095D01*
X124052739Y-96445001D01*
X124741548Y-96445001D01*
X124333037Y-96475000D01*
X72173895Y-96475000D01*
X72173885Y-96475001D01*
X20092733Y-96474999D01*
X19951373Y-96462383D01*
X20735117Y-96392070D01*
X21516596Y-96162416D01*
X22238255Y-95784716D01*
X22298365Y-95744551D01*
X22694549Y-95224156D01*
X19959999Y-92489606D01*
X19945857Y-92503749D01*
X19766252Y-92324144D01*
X19780394Y-92310001D01*
X20139604Y-92310001D01*
X22874154Y-95044551D01*
X23394549Y-94648367D01*
X23784747Y-93933389D01*
X24027963Y-93156025D01*
X24114850Y-92346148D01*
X24042068Y-91534883D01*
X23812414Y-90753404D01*
X23434714Y-90031745D01*
X23394549Y-89971635D01*
X22874154Y-89575451D01*
X20139604Y-92310001D01*
X19780394Y-92310001D01*
X17045844Y-89575451D01*
X16525449Y-89971635D01*
X16135251Y-90686613D01*
X15892035Y-91463977D01*
X15805148Y-92273854D01*
X15862217Y-92909979D01*
X15842286Y-92826961D01*
X15795001Y-92183051D01*
X15795001Y-89395846D01*
X17225449Y-89395846D01*
X19959999Y-92130396D01*
X22694549Y-89395846D01*
X22298365Y-88875451D01*
X21583387Y-88485253D01*
X20806023Y-88242037D01*
X19996146Y-88155150D01*
X19184881Y-88227932D01*
X18403402Y-88457586D01*
X17681743Y-88835286D01*
X17621633Y-88875451D01*
X17225449Y-89395846D01*
X15795001Y-89395846D01*
X15795000Y-65410000D01*
X18381928Y-65410000D01*
X18394188Y-65534482D01*
X18430498Y-65654180D01*
X18489463Y-65764494D01*
X18568815Y-65861185D01*
X18665506Y-65940537D01*
X18775820Y-65999502D01*
X18895518Y-66035812D01*
X19020000Y-66048072D01*
X19584250Y-66045000D01*
X19743000Y-65886250D01*
X19743000Y-64687000D01*
X19997000Y-64687000D01*
X19997000Y-65886250D01*
X20155750Y-66045000D01*
X20720000Y-66048072D01*
X20844482Y-66035812D01*
X20964180Y-65999502D01*
X21074494Y-65940537D01*
X21171185Y-65861185D01*
X21250537Y-65764494D01*
X21309502Y-65654180D01*
X21345812Y-65534482D01*
X21358072Y-65410000D01*
X21355000Y-64845750D01*
X21196250Y-64687000D01*
X19997000Y-64687000D01*
X19743000Y-64687000D01*
X18543750Y-64687000D01*
X18385000Y-64845750D01*
X18381928Y-65410000D01*
X15795000Y-65410000D01*
X15794999Y-59146115D01*
X15795000Y-59146105D01*
X15795000Y-56940000D01*
X18377815Y-56940000D01*
X18406487Y-57231111D01*
X18491401Y-57511034D01*
X18629294Y-57769014D01*
X18814866Y-57995134D01*
X19040986Y-58180706D01*
X19095791Y-58210000D01*
X19040986Y-58239294D01*
X18814866Y-58424866D01*
X18629294Y-58650986D01*
X18491401Y-58908966D01*
X18406487Y-59188889D01*
X18377815Y-59480000D01*
X18406487Y-59771111D01*
X18491401Y-60051034D01*
X18629294Y-60309014D01*
X18814866Y-60535134D01*
X19040986Y-60720706D01*
X19095791Y-60750000D01*
X19040986Y-60779294D01*
X18814866Y-60964866D01*
X18629294Y-61190986D01*
X18491401Y-61448966D01*
X18406487Y-61728889D01*
X18377815Y-62020000D01*
X18406487Y-62311111D01*
X18491401Y-62591034D01*
X18629294Y-62849014D01*
X18814866Y-63075134D01*
X18844687Y-63099607D01*
X18775820Y-63120498D01*
X18665506Y-63179463D01*
X18568815Y-63258815D01*
X18489463Y-63355506D01*
X18430498Y-63465820D01*
X18394188Y-63585518D01*
X18381928Y-63710000D01*
X18385000Y-64274250D01*
X18543750Y-64433000D01*
X19743000Y-64433000D01*
X19743000Y-64413000D01*
X19997000Y-64413000D01*
X19997000Y-64433000D01*
X21196250Y-64433000D01*
X21355000Y-64274250D01*
X21358072Y-63710000D01*
X21345812Y-63585518D01*
X21309502Y-63465820D01*
X21250537Y-63355506D01*
X21171185Y-63258815D01*
X21074494Y-63179463D01*
X20964180Y-63120498D01*
X20895313Y-63099607D01*
X20925134Y-63075134D01*
X21110706Y-62849014D01*
X21248599Y-62591034D01*
X21333513Y-62311111D01*
X21362185Y-62020000D01*
X21333513Y-61728889D01*
X21248599Y-61448966D01*
X21110706Y-61190986D01*
X20925134Y-60964866D01*
X20699014Y-60779294D01*
X20644209Y-60750000D01*
X20699014Y-60720706D01*
X20925134Y-60535134D01*
X21110706Y-60309014D01*
X21248599Y-60051034D01*
X21333513Y-59771111D01*
X21362185Y-59480000D01*
X21333513Y-59188889D01*
X21248599Y-58908966D01*
X21110706Y-58650986D01*
X20925134Y-58424866D01*
X20699014Y-58239294D01*
X20644209Y-58210000D01*
X20699014Y-58180706D01*
X20925134Y-57995134D01*
X21110706Y-57769014D01*
X21248599Y-57511034D01*
X21333513Y-57231111D01*
X21362185Y-56940000D01*
X21333513Y-56648889D01*
X21248599Y-56368966D01*
X21110706Y-56110986D01*
X20925134Y-55884866D01*
X20699014Y-55699294D01*
X20441034Y-55561401D01*
X20161111Y-55476487D01*
X19942950Y-55455000D01*
X19797050Y-55455000D01*
X19578889Y-55476487D01*
X19298966Y-55561401D01*
X19040986Y-55699294D01*
X18814866Y-55884866D01*
X18629294Y-56110986D01*
X18491401Y-56368966D01*
X18406487Y-56648889D01*
X18377815Y-56940000D01*
X15795000Y-56940000D01*
X15795000Y-26042731D01*
X15824999Y-25706599D01*
X15824999Y-26317261D01*
X15983905Y-27116134D01*
X16295610Y-27868656D01*
X16748135Y-28545908D01*
X17324090Y-29121863D01*
X18001342Y-29574388D01*
X18753864Y-29886093D01*
X19552737Y-30044999D01*
X20367261Y-30044999D01*
X21166134Y-29886093D01*
X21918656Y-29574388D01*
X22595908Y-29121863D01*
X22893617Y-28824154D01*
X121725451Y-28824154D01*
X122121635Y-29344549D01*
X122836613Y-29734747D01*
X123613977Y-29977963D01*
X124423854Y-30064850D01*
X125235119Y-29992068D01*
X126016598Y-29762414D01*
X126738257Y-29384714D01*
X126798367Y-29344549D01*
X127194551Y-28824154D01*
X124460001Y-26089604D01*
X121725451Y-28824154D01*
X22893617Y-28824154D01*
X23171863Y-28545908D01*
X23624388Y-27868656D01*
X23936093Y-27116134D01*
X24094999Y-26317261D01*
X24094999Y-25873852D01*
X120305150Y-25873852D01*
X120377932Y-26685117D01*
X120607586Y-27466596D01*
X120985286Y-28188255D01*
X121025451Y-28248365D01*
X121545846Y-28644549D01*
X124280396Y-25909999D01*
X121545846Y-23175449D01*
X121025451Y-23571633D01*
X120635253Y-24286611D01*
X120392037Y-25063975D01*
X120305150Y-25873852D01*
X24094999Y-25873852D01*
X24094999Y-25502737D01*
X23936093Y-24703864D01*
X23624388Y-23951342D01*
X23171863Y-23274090D01*
X22595908Y-22698135D01*
X21918656Y-22245610D01*
X21166134Y-21933905D01*
X20367261Y-21774999D01*
X19678438Y-21774999D01*
X20086963Y-21744999D01*
X124327268Y-21745001D01*
X124327268Y-21745001D01*
G37*
X124327268Y-21745001D02*
X124468627Y-21757617D01*
X123684883Y-21827930D01*
X122903404Y-22057584D01*
X122181745Y-22435284D01*
X122121635Y-22475449D01*
X121725451Y-22995844D01*
X124460001Y-25730394D01*
X124474144Y-25716252D01*
X124653749Y-25895857D01*
X124639606Y-25909999D01*
X127374156Y-28644549D01*
X127894551Y-28248365D01*
X128284749Y-27533387D01*
X128527965Y-26756023D01*
X128614852Y-25946146D01*
X128557783Y-25310022D01*
X128577714Y-25393040D01*
X128625001Y-26036977D01*
X128625000Y-59146104D01*
X128625001Y-59146114D01*
X128624999Y-92177269D01*
X128595001Y-92513390D01*
X128595001Y-91902739D01*
X128436095Y-91103866D01*
X128124390Y-90351344D01*
X127671865Y-89674092D01*
X127095910Y-89098137D01*
X126418658Y-88645612D01*
X125666136Y-88333907D01*
X124867263Y-88175001D01*
X124052739Y-88175001D01*
X123253866Y-88333907D01*
X122501344Y-88645612D01*
X121824092Y-89098137D01*
X121248137Y-89674092D01*
X120795612Y-90351344D01*
X120483907Y-91103866D01*
X120325001Y-91902739D01*
X120325001Y-92717263D01*
X120483907Y-93516136D01*
X120795612Y-94268658D01*
X121248137Y-94945910D01*
X121824092Y-95521865D01*
X122501344Y-95974390D01*
X123253866Y-96286095D01*
X124052739Y-96445001D01*
X124741548Y-96445001D01*
X124333037Y-96475000D01*
X72173895Y-96475000D01*
X72173885Y-96475001D01*
X20092733Y-96474999D01*
X19951373Y-96462383D01*
X20735117Y-96392070D01*
X21516596Y-96162416D01*
X22238255Y-95784716D01*
X22298365Y-95744551D01*
X22694549Y-95224156D01*
X19959999Y-92489606D01*
X19945857Y-92503749D01*
X19766252Y-92324144D01*
X19780394Y-92310001D01*
X20139604Y-92310001D01*
X22874154Y-95044551D01*
X23394549Y-94648367D01*
X23784747Y-93933389D01*
X24027963Y-93156025D01*
X24114850Y-92346148D01*
X24042068Y-91534883D01*
X23812414Y-90753404D01*
X23434714Y-90031745D01*
X23394549Y-89971635D01*
X22874154Y-89575451D01*
X20139604Y-92310001D01*
X19780394Y-92310001D01*
X17045844Y-89575451D01*
X16525449Y-89971635D01*
X16135251Y-90686613D01*
X15892035Y-91463977D01*
X15805148Y-92273854D01*
X15862217Y-92909979D01*
X15842286Y-92826961D01*
X15795001Y-92183051D01*
X15795001Y-89395846D01*
X17225449Y-89395846D01*
X19959999Y-92130396D01*
X22694549Y-89395846D01*
X22298365Y-88875451D01*
X21583387Y-88485253D01*
X20806023Y-88242037D01*
X19996146Y-88155150D01*
X19184881Y-88227932D01*
X18403402Y-88457586D01*
X17681743Y-88835286D01*
X17621633Y-88875451D01*
X17225449Y-89395846D01*
X15795001Y-89395846D01*
X15795000Y-65410000D01*
X18381928Y-65410000D01*
X18394188Y-65534482D01*
X18430498Y-65654180D01*
X18489463Y-65764494D01*
X18568815Y-65861185D01*
X18665506Y-65940537D01*
X18775820Y-65999502D01*
X18895518Y-66035812D01*
X19020000Y-66048072D01*
X19584250Y-66045000D01*
X19743000Y-65886250D01*
X19743000Y-64687000D01*
X19997000Y-64687000D01*
X19997000Y-65886250D01*
X20155750Y-66045000D01*
X20720000Y-66048072D01*
X20844482Y-66035812D01*
X20964180Y-65999502D01*
X21074494Y-65940537D01*
X21171185Y-65861185D01*
X21250537Y-65764494D01*
X21309502Y-65654180D01*
X21345812Y-65534482D01*
X21358072Y-65410000D01*
X21355000Y-64845750D01*
X21196250Y-64687000D01*
X19997000Y-64687000D01*
X19743000Y-64687000D01*
X18543750Y-64687000D01*
X18385000Y-64845750D01*
X18381928Y-65410000D01*
X15795000Y-65410000D01*
X15794999Y-59146115D01*
X15795000Y-59146105D01*
X15795000Y-56940000D01*
X18377815Y-56940000D01*
X18406487Y-57231111D01*
X18491401Y-57511034D01*
X18629294Y-57769014D01*
X18814866Y-57995134D01*
X19040986Y-58180706D01*
X19095791Y-58210000D01*
X19040986Y-58239294D01*
X18814866Y-58424866D01*
X18629294Y-58650986D01*
X18491401Y-58908966D01*
X18406487Y-59188889D01*
X18377815Y-59480000D01*
X18406487Y-59771111D01*
X18491401Y-60051034D01*
X18629294Y-60309014D01*
X18814866Y-60535134D01*
X19040986Y-60720706D01*
X19095791Y-60750000D01*
X19040986Y-60779294D01*
X18814866Y-60964866D01*
X18629294Y-61190986D01*
X18491401Y-61448966D01*
X18406487Y-61728889D01*
X18377815Y-62020000D01*
X18406487Y-62311111D01*
X18491401Y-62591034D01*
X18629294Y-62849014D01*
X18814866Y-63075134D01*
X18844687Y-63099607D01*
X18775820Y-63120498D01*
X18665506Y-63179463D01*
X18568815Y-63258815D01*
X18489463Y-63355506D01*
X18430498Y-63465820D01*
X18394188Y-63585518D01*
X18381928Y-63710000D01*
X18385000Y-64274250D01*
X18543750Y-64433000D01*
X19743000Y-64433000D01*
X19743000Y-64413000D01*
X19997000Y-64413000D01*
X19997000Y-64433000D01*
X21196250Y-64433000D01*
X21355000Y-64274250D01*
X21358072Y-63710000D01*
X21345812Y-63585518D01*
X21309502Y-63465820D01*
X21250537Y-63355506D01*
X21171185Y-63258815D01*
X21074494Y-63179463D01*
X20964180Y-63120498D01*
X20895313Y-63099607D01*
X20925134Y-63075134D01*
X21110706Y-62849014D01*
X21248599Y-62591034D01*
X21333513Y-62311111D01*
X21362185Y-62020000D01*
X21333513Y-61728889D01*
X21248599Y-61448966D01*
X21110706Y-61190986D01*
X20925134Y-60964866D01*
X20699014Y-60779294D01*
X20644209Y-60750000D01*
X20699014Y-60720706D01*
X20925134Y-60535134D01*
X21110706Y-60309014D01*
X21248599Y-60051034D01*
X21333513Y-59771111D01*
X21362185Y-59480000D01*
X21333513Y-59188889D01*
X21248599Y-58908966D01*
X21110706Y-58650986D01*
X20925134Y-58424866D01*
X20699014Y-58239294D01*
X20644209Y-58210000D01*
X20699014Y-58180706D01*
X20925134Y-57995134D01*
X21110706Y-57769014D01*
X21248599Y-57511034D01*
X21333513Y-57231111D01*
X21362185Y-56940000D01*
X21333513Y-56648889D01*
X21248599Y-56368966D01*
X21110706Y-56110986D01*
X20925134Y-55884866D01*
X20699014Y-55699294D01*
X20441034Y-55561401D01*
X20161111Y-55476487D01*
X19942950Y-55455000D01*
X19797050Y-55455000D01*
X19578889Y-55476487D01*
X19298966Y-55561401D01*
X19040986Y-55699294D01*
X18814866Y-55884866D01*
X18629294Y-56110986D01*
X18491401Y-56368966D01*
X18406487Y-56648889D01*
X18377815Y-56940000D01*
X15795000Y-56940000D01*
X15795000Y-26042731D01*
X15824999Y-25706599D01*
X15824999Y-26317261D01*
X15983905Y-27116134D01*
X16295610Y-27868656D01*
X16748135Y-28545908D01*
X17324090Y-29121863D01*
X18001342Y-29574388D01*
X18753864Y-29886093D01*
X19552737Y-30044999D01*
X20367261Y-30044999D01*
X21166134Y-29886093D01*
X21918656Y-29574388D01*
X22595908Y-29121863D01*
X22893617Y-28824154D01*
X121725451Y-28824154D01*
X122121635Y-29344549D01*
X122836613Y-29734747D01*
X123613977Y-29977963D01*
X124423854Y-30064850D01*
X125235119Y-29992068D01*
X126016598Y-29762414D01*
X126738257Y-29384714D01*
X126798367Y-29344549D01*
X127194551Y-28824154D01*
X124460001Y-26089604D01*
X121725451Y-28824154D01*
X22893617Y-28824154D01*
X23171863Y-28545908D01*
X23624388Y-27868656D01*
X23936093Y-27116134D01*
X24094999Y-26317261D01*
X24094999Y-25873852D01*
X120305150Y-25873852D01*
X120377932Y-26685117D01*
X120607586Y-27466596D01*
X120985286Y-28188255D01*
X121025451Y-28248365D01*
X121545846Y-28644549D01*
X124280396Y-25909999D01*
X121545846Y-23175449D01*
X121025451Y-23571633D01*
X120635253Y-24286611D01*
X120392037Y-25063975D01*
X120305150Y-25873852D01*
X24094999Y-25873852D01*
X24094999Y-25502737D01*
X23936093Y-24703864D01*
X23624388Y-23951342D01*
X23171863Y-23274090D01*
X22595908Y-22698135D01*
X21918656Y-22245610D01*
X21166134Y-21933905D01*
X20367261Y-21774999D01*
X19678438Y-21774999D01*
X20086963Y-21744999D01*
X124327268Y-21745001D01*
M02*
