M48
; DRILL file {KiCad (5.1.4-0-10_14)} date Tuesday, April 14, 2020 at 09:38:26 PM
; FORMAT={-:-/ absolute / inch / decimal}
; #@! TF.CreationDate,2020-04-14T21:38:26-07:00
; #@! TF.GenerationSoftware,Kicad,Pcbnew,(5.1.4-0-10_14)
; #@! TF.FileFunction,Plated,1,2,PTH
FMAT,2
INCH
T1C0.0236
T2C0.0394
%
G90
G05
T2
X1.0235Y-2.7923
X1.0235Y-2.8923
X1.0235Y-2.9923
X1.0283Y-3.8928
X1.0283Y-3.9928
X1.0294Y-4.0954
X1.0294Y-4.1954
X1.0294Y-4.2954
X1.1235Y-2.7923
X1.1235Y-2.8923
X1.1235Y-2.9923
X1.1283Y-3.8928
X1.1283Y-3.9928
X1.1294Y-4.0954
X1.1294Y-4.1954
X1.1294Y-4.2954
X1.1655Y-2.5142
X1.1655Y-2.6142
X1.1655Y-4.4711
X1.1655Y-4.5711
X1.2235Y-2.7923
X1.2235Y-2.8923
X1.2235Y-2.9923
X1.2283Y-3.8928
X1.2283Y-3.9928
X1.2294Y-4.0954
X1.2294Y-4.1954
X1.2294Y-4.2954
X1.2655Y-2.5142
X1.2655Y-2.6142
X1.2655Y-4.4711
X1.2655Y-4.5711
X1.3235Y-2.7923
X1.3235Y-2.8923
X1.3235Y-2.9923
X1.3283Y-3.8928
X1.3283Y-3.9928
X1.3294Y-4.0954
X1.3294Y-4.1954
X1.3294Y-4.2954
X1.3655Y-2.5142
X1.3655Y-2.6142
X1.3655Y-4.4711
X1.3655Y-4.5711
X1.4258Y-2.7923
X1.4258Y-2.8923
X1.4258Y-2.9923
X1.4258Y-3.8923
X1.4258Y-3.9923
X1.4258Y-4.0923
X1.4258Y-4.1923
X1.4258Y-4.2923
X1.4655Y-2.5142
X1.4655Y-2.6142
X1.4655Y-4.4711
X1.4655Y-4.5711
X1.5258Y-2.7923
X1.5258Y-2.8923
X1.5258Y-2.9923
X1.5258Y-3.0923
X1.5258Y-3.1923
X1.5258Y-3.2923
X1.5258Y-3.3923
X1.5258Y-3.4923
X1.5258Y-3.5923
X1.5258Y-3.6923
X1.5258Y-3.7923
X1.5258Y-3.8923
X1.5258Y-3.9923
X1.5258Y-4.0923
X1.5258Y-4.1923
X1.5258Y-4.2923
X1.5655Y-2.5142
X1.5655Y-2.6142
X1.5655Y-4.4711
X1.5655Y-4.5711
X1.6258Y-2.7923
X1.6258Y-2.8923
X1.6258Y-2.9923
X1.6258Y-3.0923
X1.6258Y-3.1923
X1.6258Y-3.2923
X1.6258Y-3.3923
X1.6258Y-3.4923
X1.6258Y-3.5923
X1.6258Y-3.6923
X1.6258Y-3.7923
X1.6258Y-3.8923
X1.6258Y-3.9923
X1.6258Y-4.0923
X1.6258Y-4.1923
X1.6258Y-4.2923
X1.6655Y-2.5142
X1.6655Y-2.6142
X1.6655Y-4.4711
X1.6655Y-4.5711
X1.7258Y-2.7923
X1.7258Y-2.8923
X1.7258Y-2.9923
X1.7258Y-3.0923
X1.7258Y-3.1923
X1.7258Y-3.2923
X1.7258Y-3.3923
X1.7258Y-3.4923
X1.7258Y-3.5923
X1.7258Y-3.6923
X1.7258Y-3.7923
X1.7258Y-3.8923
X1.7258Y-3.9923
X1.7258Y-4.0923
X1.7258Y-4.1923
X1.7258Y-4.2923
X1.7655Y-2.5142
X1.7655Y-2.6142
X1.7655Y-4.4711
X1.7655Y-4.5711
X1.8258Y-2.7923
X1.8258Y-2.8923
X1.8258Y-2.9923
X1.8258Y-3.0923
X1.8258Y-3.1923
X1.8258Y-3.2923
X1.8258Y-3.3923
X1.8258Y-3.4923
X1.8258Y-3.5923
X1.8258Y-3.6923
X1.8258Y-3.7923
X1.8258Y-3.8923
X1.8258Y-3.9923
X1.8258Y-4.0923
X1.8258Y-4.1923
X1.8258Y-4.2923
X1.8655Y-2.5142
X1.8655Y-2.6142
X1.8655Y-4.4711
X1.8655Y-4.5711
X1.9258Y-2.7923
X1.9258Y-2.8923
X1.9258Y-2.9923
X1.9258Y-3.0923
X1.9258Y-3.1923
X1.9258Y-3.2923
X1.9258Y-3.3923
X1.9258Y-3.4923
X1.9258Y-3.5923
X1.9258Y-3.6923
X1.9258Y-3.7923
X1.9258Y-3.8923
X1.9258Y-3.9923
X1.9258Y-4.0923
X1.9258Y-4.1923
X1.9258Y-4.2923
X1.9655Y-2.5142
X1.9655Y-2.6142
X1.9655Y-4.4711
X1.9655Y-4.5711
X2.0258Y-2.7923
X2.0258Y-2.8923
X2.0258Y-2.9923
X2.0258Y-3.0923
X2.0258Y-3.1923
X2.0258Y-3.2923
X2.0258Y-3.3923
X2.0258Y-3.4923
X2.0258Y-3.5923
X2.0258Y-3.6923
X2.0258Y-3.7923
X2.0258Y-3.8923
X2.0258Y-3.9923
X2.0258Y-4.0923
X2.0258Y-4.1923
X2.0258Y-4.2923
X2.0655Y-2.5142
X2.0655Y-2.6142
X2.0655Y-4.4711
X2.0655Y-4.5711
X2.1258Y-2.7923
X2.1258Y-2.8923
X2.1258Y-2.9923
X2.1258Y-3.0923
X2.1258Y-3.1923
X2.1258Y-3.2923
X2.1258Y-3.3923
X2.1258Y-3.4923
X2.1258Y-3.5923
X2.1258Y-3.6923
X2.1258Y-3.7923
X2.1258Y-3.8923
X2.1258Y-3.9923
X2.1258Y-4.0923
X2.1258Y-4.1923
X2.1258Y-4.2923
X2.1655Y-2.5142
X2.1655Y-2.6142
X2.1655Y-4.4711
X2.1655Y-4.5711
X2.2258Y-2.7923
X2.2258Y-2.8923
X2.2258Y-2.9923
X2.2258Y-3.0923
X2.2258Y-3.1923
X2.2258Y-3.2923
X2.2258Y-3.3923
X2.2258Y-3.4923
X2.2258Y-3.5923
X2.2258Y-3.6923
X2.2258Y-3.7923
X2.2258Y-3.8923
X2.2258Y-3.9923
X2.2258Y-4.0923
X2.2258Y-4.1923
X2.2258Y-4.2923
X2.2655Y-2.5142
X2.2655Y-2.6142
X2.2655Y-4.4711
X2.2655Y-4.5711
X2.3258Y-2.7923
X2.3258Y-2.8923
X2.3258Y-2.9923
X2.3258Y-3.0923
X2.3258Y-3.1923
X2.3258Y-3.2923
X2.3258Y-3.3923
X2.3258Y-3.4923
X2.3258Y-3.5923
X2.3258Y-3.6923
X2.3258Y-3.7923
X2.3258Y-3.8923
X2.3258Y-3.9923
X2.3258Y-4.0923
X2.3258Y-4.1923
X2.3258Y-4.2923
X2.3655Y-2.5142
X2.3655Y-2.6142
X2.3655Y-4.4711
X2.3655Y-4.5711
X2.4258Y-2.7923
X2.4258Y-2.8923
X2.4258Y-2.9923
X2.4258Y-3.0923
X2.4258Y-3.1923
X2.4258Y-3.2923
X2.4258Y-3.3923
X2.4258Y-3.4923
X2.4258Y-3.5923
X2.4258Y-3.6923
X2.4258Y-3.7923
X2.4258Y-3.8923
X2.4258Y-3.9923
X2.4258Y-4.0923
X2.4258Y-4.1923
X2.4258Y-4.2923
X2.4655Y-2.5142
X2.4655Y-2.6142
X2.4655Y-4.4711
X2.4655Y-4.5711
X2.5258Y-2.7923
X2.5258Y-2.8923
X2.5258Y-2.9923
X2.5258Y-3.0923
X2.5258Y-3.1923
X2.5258Y-3.2923
X2.5258Y-3.3923
X2.5258Y-3.4923
X2.5258Y-3.5923
X2.5258Y-3.6923
X2.5258Y-3.7923
X2.5258Y-3.8923
X2.5258Y-3.9923
X2.5258Y-4.0923
X2.5258Y-4.1923
X2.5258Y-4.2923
X2.5655Y-2.5142
X2.5655Y-2.6142
X2.5655Y-4.4711
X2.5655Y-4.5711
X2.6258Y-2.7923
X2.6258Y-2.8923
X2.6258Y-2.9923
X2.6258Y-3.0923
X2.6258Y-3.1923
X2.6258Y-3.2923
X2.6258Y-3.3923
X2.6258Y-3.4923
X2.6258Y-3.5923
X2.6258Y-3.6923
X2.6258Y-3.7923
X2.6258Y-3.8923
X2.6258Y-3.9923
X2.6258Y-4.0923
X2.6258Y-4.1923
X2.6258Y-4.2923
X2.6655Y-2.5142
X2.6655Y-2.6142
X2.6655Y-4.4711
X2.6655Y-4.5711
X2.7258Y-2.7923
X2.7258Y-2.8923
X2.7258Y-2.9923
X2.7258Y-3.0923
X2.7258Y-3.1923
X2.7258Y-3.2923
X2.7258Y-3.3923
X2.7258Y-3.4923
X2.7258Y-3.5923
X2.7258Y-3.6923
X2.7258Y-3.7923
X2.7258Y-3.8923
X2.7258Y-3.9923
X2.7258Y-4.0923
X2.7258Y-4.1923
X2.7258Y-4.2923
X2.7655Y-2.5142
X2.7655Y-2.6142
X2.7655Y-4.4711
X2.7655Y-4.5711
X2.8258Y-2.7923
X2.8258Y-2.8923
X2.8258Y-2.9923
X2.8258Y-3.0923
X2.8258Y-3.1923
X2.8258Y-3.2923
X2.8258Y-3.3923
X2.8258Y-3.4923
X2.8258Y-3.5923
X2.8258Y-3.6923
X2.8258Y-3.7923
X2.8258Y-3.8923
X2.8258Y-3.9923
X2.8258Y-4.0923
X2.8258Y-4.1923
X2.8258Y-4.2923
X2.8655Y-2.5142
X2.8655Y-2.6142
X2.8655Y-4.4711
X2.8655Y-4.5711
X2.9258Y-2.7923
X2.9258Y-2.8923
X2.9258Y-2.9923
X2.9258Y-3.0923
X2.9258Y-3.1923
X2.9258Y-3.2923
X2.9258Y-3.3923
X2.9258Y-3.4923
X2.9258Y-3.5923
X2.9258Y-3.6923
X2.9258Y-3.7923
X2.9258Y-3.8923
X2.9258Y-3.9923
X2.9258Y-4.0923
X2.9258Y-4.1923
X2.9258Y-4.2923
X2.9655Y-2.5142
X2.9655Y-2.6142
X2.9655Y-4.4711
X2.9655Y-4.5711
X3.0258Y-2.7923
X3.0258Y-2.8923
X3.0258Y-2.9923
X3.0258Y-3.0923
X3.0258Y-3.1923
X3.0258Y-3.2923
X3.0258Y-3.3923
X3.0258Y-3.4923
X3.0258Y-3.5923
X3.0258Y-3.6923
X3.0258Y-3.7923
X3.0258Y-3.8923
X3.0258Y-3.9923
X3.0258Y-4.0923
X3.0258Y-4.1923
X3.0258Y-4.2923
X3.0655Y-2.5142
X3.0655Y-2.6142
X3.0655Y-4.4711
X3.0655Y-4.5711
X3.1258Y-2.7923
X3.1258Y-2.8923
X3.1258Y-2.9923
X3.1258Y-3.0923
X3.1258Y-3.1923
X3.1258Y-3.2923
X3.1258Y-3.3923
X3.1258Y-3.4923
X3.1258Y-3.5923
X3.1258Y-3.6923
X3.1258Y-3.7923
X3.1258Y-3.8923
X3.1258Y-3.9923
X3.1258Y-4.0923
X3.1258Y-4.1923
X3.1258Y-4.2923
X3.1655Y-2.5142
X3.1655Y-2.6142
X3.1655Y-4.4711
X3.1655Y-4.5711
X3.2258Y-2.7923
X3.2258Y-2.8923
X3.2258Y-2.9923
X3.2258Y-3.0923
X3.2258Y-3.1923
X3.2258Y-3.2923
X3.2258Y-3.3923
X3.2258Y-3.4923
X3.2258Y-3.5923
X3.2258Y-3.6923
X3.2258Y-3.7923
X3.2258Y-3.8923
X3.2258Y-3.9923
X3.2258Y-4.0923
X3.2258Y-4.1923
X3.2258Y-4.2923
X3.2655Y-2.5142
X3.2655Y-2.6142
X3.2655Y-4.4711
X3.2655Y-4.5711
X3.3258Y-2.7923
X3.3258Y-2.8923
X3.3258Y-2.9923
X3.3258Y-3.0923
X3.3258Y-3.1923
X3.3258Y-3.2923
X3.3258Y-3.3923
X3.3258Y-3.4923
X3.3258Y-3.5923
X3.3258Y-3.6923
X3.3258Y-3.7923
X3.3258Y-3.8923
X3.3258Y-3.9923
X3.3258Y-4.0923
X3.3258Y-4.1923
X3.3258Y-4.2923
X3.3655Y-2.5142
X3.3655Y-2.6142
X3.3655Y-4.4711
X3.3655Y-4.5711
X3.4258Y-2.7923
X3.4258Y-2.8923
X3.4258Y-2.9923
X3.4258Y-3.0923
X3.4258Y-3.1923
X3.4258Y-3.2923
X3.4258Y-3.3923
X3.4258Y-3.4923
X3.4258Y-3.5923
X3.4258Y-3.6923
X3.4258Y-3.7923
X3.4258Y-3.8923
X3.4258Y-3.9923
X3.4258Y-4.0923
X3.4258Y-4.1923
X3.4258Y-4.2923
X3.4655Y-2.5142
X3.4655Y-2.6142
X3.4655Y-4.4711
X3.4655Y-4.5711
X3.5258Y-2.7923
X3.5258Y-2.8923
X3.5258Y-2.9923
X3.5258Y-3.0923
X3.5258Y-3.1923
X3.5258Y-3.2923
X3.5258Y-3.3923
X3.5258Y-3.4923
X3.5258Y-3.5923
X3.5258Y-3.6923
X3.5258Y-3.7923
X3.5258Y-3.8923
X3.5258Y-3.9923
X3.5258Y-4.0923
X3.5258Y-4.1923
X3.5258Y-4.2923
X3.5655Y-2.5142
X3.5655Y-2.6142
X3.5655Y-4.4711
X3.5655Y-4.5711
X3.6258Y-2.7923
X3.6258Y-2.8923
X3.6258Y-2.9923
X3.6258Y-3.0923
X3.6258Y-3.1923
X3.6258Y-3.2923
X3.6258Y-3.3923
X3.6258Y-3.4923
X3.6258Y-3.5923
X3.6258Y-3.6923
X3.6258Y-3.7923
X3.6258Y-3.8923
X3.6258Y-3.9923
X3.6258Y-4.0923
X3.6258Y-4.1923
X3.6258Y-4.2923
X3.7258Y-2.7923
X3.7258Y-2.8923
X3.7258Y-2.9923
X3.7258Y-3.0923
X3.7258Y-3.1923
X3.7258Y-3.2923
X3.7258Y-3.3923
X3.7258Y-3.4923
X3.7258Y-3.5923
X3.7258Y-3.6923
X3.7258Y-3.7923
X3.7258Y-3.8923
X3.7258Y-3.9923
X3.7258Y-4.0923
X3.7258Y-4.1923
X3.7258Y-4.2923
X0.9449Y-3.1496
X1.0449Y-3.1496
X1.1449Y-3.1496
X1.2449Y-3.1496
T1
G00X1.0904Y-3.3929
M15
G01X1.0667Y-3.3929
M16
G05
G00X1.0904Y-3.7331
M15
G01X1.0667Y-3.7331
M16
G05
G00X1.2636Y-3.3929
M15
G01X1.2203Y-3.3929
M16
G05
G00X1.2636Y-3.7331
M15
G01X1.2203Y-3.7331
M16
G05
T0
M30
