G04 #@! TF.GenerationSoftware,KiCad,Pcbnew,(5.1.4-0-10_14)*
G04 #@! TF.CreationDate,2020-04-14T21:38:13-07:00*
G04 #@! TF.ProjectId,Activity_1,41637469-7669-4747-995f-312e6b696361,rev?*
G04 #@! TF.SameCoordinates,Original*
G04 #@! TF.FileFunction,Copper,L1,Top*
G04 #@! TF.FilePolarity,Positive*
%FSLAX46Y46*%
G04 Gerber Fmt 4.6, Leading zero omitted, Abs format (unit mm)*
G04 Created by KiCad (PCBNEW (5.1.4-0-10_14)) date 2020-04-14 21:38:13*
%MOMM*%
%LPD*%
G04 APERTURE LIST*
%ADD10R,1.150000X0.300000*%
%ADD11R,0.850000X0.600000*%
%ADD12O,1.600000X1.000000*%
%ADD13O,2.100000X1.000000*%
%ADD14O,1.700000X1.700000*%
%ADD15R,1.700000X1.700000*%
%ADD16C,1.700000*%
%ADD17C,0.635000*%
%ADD18C,0.300000*%
%ADD19C,0.152400*%
G04 APERTURE END LIST*
D10*
X32020000Y-88750000D03*
D11*
X32170000Y-88100000D03*
D12*
X27395000Y-86180000D03*
X27395000Y-94820000D03*
D13*
X31545000Y-94820000D03*
D11*
X32170000Y-87300000D03*
D13*
X31545000Y-86180000D03*
D10*
X32020000Y-89250000D03*
X32020000Y-89750000D03*
X32020000Y-90250000D03*
X32020000Y-90750000D03*
X32020000Y-91250000D03*
X32020000Y-91750000D03*
X32020000Y-92250000D03*
D11*
X32170000Y-93700000D03*
X32170000Y-92900000D03*
D14*
X31620000Y-80000000D03*
X29080000Y-80000000D03*
X26540000Y-80000000D03*
D15*
X24000000Y-80000000D03*
D16*
X29604000Y-63861000D03*
X32144000Y-63861000D03*
X34684000Y-63861000D03*
X37224000Y-63861000D03*
X39764000Y-63861000D03*
X42304000Y-63861000D03*
X44844000Y-63861000D03*
X47384000Y-63861000D03*
X49924000Y-63861000D03*
X52464000Y-63861000D03*
X55004000Y-63861000D03*
X57544000Y-63861000D03*
X60084000Y-63861000D03*
X62624000Y-63861000D03*
X65164000Y-63861000D03*
X67704000Y-63861000D03*
X70244000Y-63861000D03*
X72784000Y-63861000D03*
X75324000Y-63861000D03*
X77864000Y-63861000D03*
X80404000Y-63861000D03*
X82944000Y-63861000D03*
X85484000Y-63861000D03*
X88024000Y-63861000D03*
X90564000Y-63861000D03*
X29604000Y-66401000D03*
X32144000Y-66401000D03*
X34684000Y-66401000D03*
X37224000Y-66401000D03*
X39764000Y-66401000D03*
X42304000Y-66401000D03*
X44844000Y-66401000D03*
X47384000Y-66401000D03*
X49924000Y-66401000D03*
X52464000Y-66401000D03*
X55004000Y-66401000D03*
X57544000Y-66401000D03*
X60084000Y-66401000D03*
X62624000Y-66401000D03*
X65164000Y-66401000D03*
X67704000Y-66401000D03*
X70244000Y-66401000D03*
X72784000Y-66401000D03*
X75324000Y-66401000D03*
X77864000Y-66401000D03*
X80404000Y-66401000D03*
X82944000Y-66401000D03*
X85484000Y-66401000D03*
X88024000Y-66401000D03*
X90564000Y-66401000D03*
X88024000Y-116105000D03*
X90564000Y-116105000D03*
X75324000Y-116105000D03*
X77864000Y-116105000D03*
X55004000Y-116105000D03*
X70244000Y-116105000D03*
X60084000Y-116105000D03*
X72784000Y-116105000D03*
X80404000Y-116105000D03*
X62624000Y-116105000D03*
X52464000Y-116105000D03*
X65164000Y-116105000D03*
X67704000Y-116105000D03*
X82944000Y-116105000D03*
X85484000Y-116105000D03*
X57544000Y-116105000D03*
X47384000Y-116105000D03*
X90564000Y-113565000D03*
X62624000Y-113565000D03*
X85484000Y-113565000D03*
X37224000Y-116105000D03*
X55004000Y-113565000D03*
X75324000Y-113565000D03*
X39764000Y-116105000D03*
X29604000Y-113565000D03*
X32144000Y-116105000D03*
X65164000Y-113565000D03*
X44844000Y-113565000D03*
X60084000Y-113565000D03*
X42304000Y-116105000D03*
X70244000Y-113565000D03*
X77864000Y-113565000D03*
X34684000Y-116105000D03*
X49924000Y-116105000D03*
X88024000Y-113565000D03*
X82944000Y-113565000D03*
X57544000Y-113565000D03*
X29604000Y-116105000D03*
X67704000Y-113565000D03*
X80404000Y-113565000D03*
X44844000Y-116105000D03*
X52464000Y-113565000D03*
X49924000Y-113565000D03*
X47384000Y-113565000D03*
X72784000Y-113565000D03*
X32144000Y-113565000D03*
X37224000Y-113565000D03*
X39764000Y-113565000D03*
X42304000Y-113565000D03*
X34684000Y-113565000D03*
X36215000Y-70924000D03*
X38755000Y-70924000D03*
X41295000Y-70924000D03*
X43835000Y-70924000D03*
X46375000Y-70924000D03*
X48915000Y-70924000D03*
X51455000Y-70924000D03*
X53995000Y-70924000D03*
X56535000Y-70924000D03*
X59075000Y-70924000D03*
X61615000Y-70924000D03*
X64155000Y-70924000D03*
X66695000Y-70924000D03*
X69235000Y-70924000D03*
X71775000Y-70924000D03*
X74315000Y-70924000D03*
X76855000Y-70924000D03*
X79395000Y-70924000D03*
X81935000Y-70924000D03*
X84475000Y-70924000D03*
X87015000Y-70924000D03*
X89555000Y-70924000D03*
X92095000Y-70924000D03*
X94635000Y-70924000D03*
X36215000Y-73464000D03*
X38755000Y-73464000D03*
X41295000Y-73464000D03*
X43835000Y-73464000D03*
X46375000Y-73464000D03*
X48915000Y-73464000D03*
X51455000Y-73464000D03*
X53995000Y-73464000D03*
X56535000Y-73464000D03*
X59075000Y-73464000D03*
X61615000Y-73464000D03*
X64155000Y-73464000D03*
X66695000Y-73464000D03*
X69235000Y-73464000D03*
X71775000Y-73464000D03*
X74315000Y-73464000D03*
X76855000Y-73464000D03*
X79395000Y-73464000D03*
X81935000Y-73464000D03*
X84475000Y-73464000D03*
X87015000Y-73464000D03*
X89555000Y-73464000D03*
X92095000Y-73464000D03*
X94635000Y-73464000D03*
X36215000Y-76004000D03*
X38755000Y-76004000D03*
X41295000Y-76004000D03*
X43835000Y-76004000D03*
X46375000Y-76004000D03*
X48915000Y-76004000D03*
X51455000Y-76004000D03*
X53995000Y-76004000D03*
X56535000Y-76004000D03*
X59075000Y-76004000D03*
X61615000Y-76004000D03*
X64155000Y-76004000D03*
X66695000Y-76004000D03*
X69235000Y-76004000D03*
X71775000Y-76004000D03*
X74315000Y-76004000D03*
X76855000Y-76004000D03*
X79395000Y-76004000D03*
X81935000Y-76004000D03*
X84475000Y-76004000D03*
X87015000Y-76004000D03*
X89555000Y-76004000D03*
X92095000Y-76004000D03*
X94635000Y-76004000D03*
X38755000Y-78544000D03*
X41295000Y-78544000D03*
X43835000Y-78544000D03*
X46375000Y-78544000D03*
X48915000Y-78544000D03*
X51455000Y-78544000D03*
X53995000Y-78544000D03*
X56535000Y-78544000D03*
X59075000Y-78544000D03*
X61615000Y-78544000D03*
X64155000Y-78544000D03*
X66695000Y-78544000D03*
X69235000Y-78544000D03*
X71775000Y-78544000D03*
X74315000Y-78544000D03*
X76855000Y-78544000D03*
X79395000Y-78544000D03*
X81935000Y-78544000D03*
X84475000Y-78544000D03*
X87015000Y-78544000D03*
X89555000Y-78544000D03*
X92095000Y-78544000D03*
X94635000Y-78544000D03*
X38755000Y-81084000D03*
X41295000Y-81084000D03*
X43835000Y-81084000D03*
X46375000Y-81084000D03*
X48915000Y-81084000D03*
X51455000Y-81084000D03*
X53995000Y-81084000D03*
X56535000Y-81084000D03*
X59075000Y-81084000D03*
X61615000Y-81084000D03*
X64155000Y-81084000D03*
X66695000Y-81084000D03*
X69235000Y-81084000D03*
X71775000Y-81084000D03*
X74315000Y-81084000D03*
X76855000Y-81084000D03*
X79395000Y-81084000D03*
X81935000Y-81084000D03*
X84475000Y-81084000D03*
X87015000Y-81084000D03*
X89555000Y-81084000D03*
X92095000Y-81084000D03*
X94635000Y-81084000D03*
X38755000Y-83624000D03*
X41295000Y-83624000D03*
X43835000Y-83624000D03*
X46375000Y-83624000D03*
X48915000Y-83624000D03*
X51455000Y-83624000D03*
X53995000Y-83624000D03*
X56535000Y-83624000D03*
X59075000Y-83624000D03*
X61615000Y-83624000D03*
X64155000Y-83624000D03*
X66695000Y-83624000D03*
X69235000Y-83624000D03*
X71775000Y-83624000D03*
X74315000Y-83624000D03*
X76855000Y-83624000D03*
X79395000Y-83624000D03*
X81935000Y-83624000D03*
X84475000Y-83624000D03*
X87015000Y-83624000D03*
X89555000Y-83624000D03*
X92095000Y-83624000D03*
X94635000Y-83624000D03*
X38755000Y-86164000D03*
X41295000Y-86164000D03*
X43835000Y-86164000D03*
X46375000Y-86164000D03*
X48915000Y-86164000D03*
X51455000Y-86164000D03*
X53995000Y-86164000D03*
X56535000Y-86164000D03*
X59075000Y-86164000D03*
X61615000Y-86164000D03*
X64155000Y-86164000D03*
X66695000Y-86164000D03*
X69235000Y-86164000D03*
X71775000Y-86164000D03*
X74315000Y-86164000D03*
X76855000Y-86164000D03*
X79395000Y-86164000D03*
X81935000Y-86164000D03*
X84475000Y-86164000D03*
X87015000Y-86164000D03*
X89555000Y-86164000D03*
X92095000Y-86164000D03*
X94635000Y-86164000D03*
X38755000Y-88704000D03*
X41295000Y-88704000D03*
X43835000Y-88704000D03*
X46375000Y-88704000D03*
X48915000Y-88704000D03*
X51455000Y-88704000D03*
X53995000Y-88704000D03*
X56535000Y-88704000D03*
X59075000Y-88704000D03*
X61615000Y-88704000D03*
X64155000Y-88704000D03*
X66695000Y-88704000D03*
X69235000Y-88704000D03*
X71775000Y-88704000D03*
X74315000Y-88704000D03*
X76855000Y-88704000D03*
X79395000Y-88704000D03*
X81935000Y-88704000D03*
X84475000Y-88704000D03*
X87015000Y-88704000D03*
X89555000Y-88704000D03*
X92095000Y-88704000D03*
X94635000Y-88704000D03*
X38755000Y-91244000D03*
X41295000Y-91244000D03*
X43835000Y-91244000D03*
X46375000Y-91244000D03*
X48915000Y-91244000D03*
X51455000Y-91244000D03*
X53995000Y-91244000D03*
X56535000Y-91244000D03*
X59075000Y-91244000D03*
X61615000Y-91244000D03*
X64155000Y-91244000D03*
X66695000Y-91244000D03*
X69235000Y-91244000D03*
X71775000Y-91244000D03*
X74315000Y-91244000D03*
X76855000Y-91244000D03*
X79395000Y-91244000D03*
X81935000Y-91244000D03*
X84475000Y-91244000D03*
X87015000Y-91244000D03*
X89555000Y-91244000D03*
X92095000Y-91244000D03*
X94635000Y-91244000D03*
X38755000Y-93784000D03*
X41295000Y-93784000D03*
X43835000Y-93784000D03*
X46375000Y-93784000D03*
X48915000Y-93784000D03*
X51455000Y-93784000D03*
X53995000Y-93784000D03*
X56535000Y-93784000D03*
X59075000Y-93784000D03*
X61615000Y-93784000D03*
X64155000Y-93784000D03*
X66695000Y-93784000D03*
X69235000Y-93784000D03*
X71775000Y-93784000D03*
X74315000Y-93784000D03*
X76855000Y-93784000D03*
X79395000Y-93784000D03*
X81935000Y-93784000D03*
X84475000Y-93784000D03*
X87015000Y-93784000D03*
X89555000Y-93784000D03*
X92095000Y-93784000D03*
X94635000Y-93784000D03*
X38755000Y-96324000D03*
X41295000Y-96324000D03*
X43835000Y-96324000D03*
X46375000Y-96324000D03*
X48915000Y-96324000D03*
X51455000Y-96324000D03*
X53995000Y-96324000D03*
X56535000Y-96324000D03*
X59075000Y-96324000D03*
X61615000Y-96324000D03*
X64155000Y-96324000D03*
X66695000Y-96324000D03*
X69235000Y-96324000D03*
X71775000Y-96324000D03*
X74315000Y-96324000D03*
X76855000Y-96324000D03*
X79395000Y-96324000D03*
X81935000Y-96324000D03*
X84475000Y-96324000D03*
X87015000Y-96324000D03*
X89555000Y-96324000D03*
X92095000Y-96324000D03*
X94635000Y-96324000D03*
X36215000Y-98864000D03*
X38755000Y-98864000D03*
X41295000Y-98864000D03*
X43835000Y-98864000D03*
X46375000Y-98864000D03*
X48915000Y-98864000D03*
X51455000Y-98864000D03*
X53995000Y-98864000D03*
X56535000Y-98864000D03*
X59075000Y-98864000D03*
X61615000Y-98864000D03*
X64155000Y-98864000D03*
X66695000Y-98864000D03*
X69235000Y-98864000D03*
X71775000Y-98864000D03*
X74315000Y-98864000D03*
X76855000Y-98864000D03*
X79395000Y-98864000D03*
X81935000Y-98864000D03*
X84475000Y-98864000D03*
X87015000Y-98864000D03*
X89555000Y-98864000D03*
X92095000Y-98864000D03*
X94635000Y-98864000D03*
X36215000Y-101404000D03*
X38755000Y-101404000D03*
X41295000Y-101404000D03*
X43835000Y-101404000D03*
X46375000Y-101404000D03*
X48915000Y-101404000D03*
X51455000Y-101404000D03*
X53995000Y-101404000D03*
X56535000Y-101404000D03*
X59075000Y-101404000D03*
X61615000Y-101404000D03*
X64155000Y-101404000D03*
X66695000Y-101404000D03*
X69235000Y-101404000D03*
X71775000Y-101404000D03*
X74315000Y-101404000D03*
X76855000Y-101404000D03*
X79395000Y-101404000D03*
X81935000Y-101404000D03*
X84475000Y-101404000D03*
X87015000Y-101404000D03*
X89555000Y-101404000D03*
X92095000Y-101404000D03*
X94635000Y-101404000D03*
X36215000Y-103944000D03*
X38755000Y-103944000D03*
X41295000Y-103944000D03*
X43835000Y-103944000D03*
X46375000Y-103944000D03*
X48915000Y-103944000D03*
X51455000Y-103944000D03*
X53995000Y-103944000D03*
X56535000Y-103944000D03*
X59075000Y-103944000D03*
X61615000Y-103944000D03*
X64155000Y-103944000D03*
X66695000Y-103944000D03*
X69235000Y-103944000D03*
X71775000Y-103944000D03*
X74315000Y-103944000D03*
X76855000Y-103944000D03*
X79395000Y-103944000D03*
X81935000Y-103944000D03*
X84475000Y-103944000D03*
X87015000Y-103944000D03*
X89555000Y-103944000D03*
X92095000Y-103944000D03*
X94635000Y-103944000D03*
X36215000Y-106484000D03*
X38755000Y-106484000D03*
X41295000Y-106484000D03*
X43835000Y-106484000D03*
X46375000Y-106484000D03*
X48915000Y-106484000D03*
X51455000Y-106484000D03*
X53995000Y-106484000D03*
X56535000Y-106484000D03*
X59075000Y-106484000D03*
X61615000Y-106484000D03*
X64155000Y-106484000D03*
X66695000Y-106484000D03*
X69235000Y-106484000D03*
X71775000Y-106484000D03*
X74315000Y-106484000D03*
X76855000Y-106484000D03*
X79395000Y-106484000D03*
X81935000Y-106484000D03*
X84475000Y-106484000D03*
X87015000Y-106484000D03*
X89555000Y-106484000D03*
X92095000Y-106484000D03*
X94635000Y-106484000D03*
X36215000Y-109024000D03*
X38755000Y-109024000D03*
X41295000Y-109024000D03*
X43835000Y-109024000D03*
X46375000Y-109024000D03*
X48915000Y-109024000D03*
X51455000Y-109024000D03*
X53995000Y-109024000D03*
X56535000Y-109024000D03*
X59075000Y-109024000D03*
X61615000Y-109024000D03*
X64155000Y-109024000D03*
X66695000Y-109024000D03*
X69235000Y-109024000D03*
X71775000Y-109024000D03*
X74315000Y-109024000D03*
X76855000Y-109024000D03*
X79395000Y-109024000D03*
X81935000Y-109024000D03*
X84475000Y-109024000D03*
X87015000Y-109024000D03*
X89555000Y-109024000D03*
X92095000Y-109024000D03*
X94635000Y-109024000D03*
X25996000Y-70924000D03*
X28536000Y-70924000D03*
X31076000Y-70924000D03*
X33616000Y-70924000D03*
X25996000Y-73464000D03*
X28536000Y-73464000D03*
X31076000Y-73464000D03*
X33616000Y-73464000D03*
X25996000Y-76004000D03*
X28536000Y-76004000D03*
X31076000Y-76004000D03*
X33616000Y-76004000D03*
X26148000Y-104022000D03*
X31228000Y-106562000D03*
X28688000Y-106562000D03*
X26148000Y-106562000D03*
X31228000Y-104022000D03*
X33768000Y-104022000D03*
X28688000Y-104022000D03*
X33768000Y-106562000D03*
X26148000Y-109102000D03*
X28688000Y-109102000D03*
X31228000Y-109102000D03*
X33768000Y-109102000D03*
X31198000Y-98876000D03*
X28658000Y-98876000D03*
X26118000Y-98876000D03*
X33738000Y-98876000D03*
X26118000Y-101416000D03*
X28658000Y-101416000D03*
X31198000Y-101416000D03*
X33738000Y-101416000D03*
D17*
X24000000Y-80000000D02*
X26540000Y-80000000D01*
X26540000Y-80000000D02*
X26540000Y-83316000D01*
X26540000Y-83316000D02*
X26995000Y-83771000D01*
X26995000Y-83771000D02*
X32684000Y-83771000D01*
X32684000Y-83771000D02*
X34107000Y-85194000D01*
X32747400Y-88100000D02*
X32020000Y-88100000D01*
X34107000Y-85194000D02*
X34107000Y-86740400D01*
X32747400Y-92900000D02*
X32020000Y-92900000D01*
X34107000Y-86740400D02*
X34107000Y-91540400D01*
X32747400Y-92900000D02*
X33284684Y-92900000D01*
X34107000Y-92077684D02*
X34107000Y-91540400D01*
X33284684Y-92900000D02*
X34107000Y-92077684D01*
X32747400Y-88100000D02*
X33133000Y-88100000D01*
X34107000Y-87126000D02*
X34107000Y-86740400D01*
X33133000Y-88100000D02*
X34107000Y-87126000D01*
X29080000Y-80000000D02*
X31620000Y-80000000D01*
X36058000Y-84438000D02*
X36058000Y-90899000D01*
X31620000Y-80000000D02*
X36058000Y-84438000D01*
X33257000Y-93700000D02*
X32020000Y-93700000D01*
X33257000Y-93700000D02*
X34808000Y-93700000D01*
X36058000Y-92450000D02*
X36058000Y-90899000D01*
X34808000Y-93700000D02*
X36058000Y-92450000D01*
D18*
X32020000Y-92250000D02*
X29673000Y-92250000D01*
D17*
X29673000Y-92250000D02*
X29265000Y-92658000D01*
X29265000Y-92658000D02*
X29265000Y-96024000D01*
X29265000Y-96024000D02*
X29651000Y-96410000D01*
X36058000Y-95920128D02*
X36058000Y-92450000D01*
X35568128Y-96410000D02*
X36058000Y-95920128D01*
X29651000Y-96410000D02*
X35568128Y-96410000D01*
D18*
X29673000Y-90869600D02*
X29673000Y-92250000D01*
X31292600Y-89250000D02*
X29673000Y-90869600D01*
X32020000Y-89250000D02*
X31292600Y-89250000D01*
D19*
X29673000Y-86471590D02*
X29676000Y-86468590D01*
D18*
X29673000Y-90869600D02*
X29673000Y-86471590D01*
X29676000Y-86468590D02*
X29676000Y-85299000D01*
X29968000Y-85007000D02*
X32525000Y-85007000D01*
X29676000Y-85299000D02*
X29968000Y-85007000D01*
X32525000Y-85007000D02*
X33255000Y-85737000D01*
X32295000Y-87300000D02*
X32170000Y-87300000D01*
X33255000Y-86340000D02*
X32295000Y-87300000D01*
X33255000Y-85737000D02*
X33255000Y-86340000D01*
M02*
