G04 #@! TF.GenerationSoftware,KiCad,Pcbnew,(5.1.4-0-10_14)*
G04 #@! TF.CreationDate,2020-04-14T21:38:13-07:00*
G04 #@! TF.ProjectId,Activity_1,41637469-7669-4747-995f-312e6b696361,rev?*
G04 #@! TF.SameCoordinates,Original*
G04 #@! TF.FileFunction,Legend,Top*
G04 #@! TF.FilePolarity,Positive*
%FSLAX46Y46*%
G04 Gerber Fmt 4.6, Leading zero omitted, Abs format (unit mm)*
G04 Created by KiCad (PCBNEW (5.1.4-0-10_14)) date 2020-04-14 21:38:13*
%MOMM*%
%LPD*%
G04 APERTURE LIST*
%ADD10C,0.120000*%
%ADD11C,0.150000*%
G04 APERTURE END LIST*
D10*
X22670000Y-81330000D02*
X22670000Y-80000000D01*
X24000000Y-81330000D02*
X22670000Y-81330000D01*
X25270000Y-81330000D02*
X25270000Y-78670000D01*
X25270000Y-78670000D02*
X32950000Y-78670000D01*
X25270000Y-81330000D02*
X32950000Y-81330000D01*
X32950000Y-81330000D02*
X32950000Y-78670000D01*
D11*
X34360380Y-95414333D02*
X35074666Y-95414333D01*
X35217523Y-95461952D01*
X35312761Y-95557190D01*
X35360380Y-95700047D01*
X35360380Y-95795285D01*
X35360380Y-94414333D02*
X35360380Y-94985761D01*
X35360380Y-94700047D02*
X34360380Y-94700047D01*
X34503238Y-94795285D01*
X34598476Y-94890523D01*
X34646095Y-94985761D01*
X24238095Y-61952380D02*
X24238095Y-60952380D01*
X24238095Y-61428571D02*
X24809523Y-61428571D01*
X24809523Y-61952380D02*
X24809523Y-60952380D01*
X25809523Y-61952380D02*
X25238095Y-61952380D01*
X25523809Y-61952380D02*
X25523809Y-60952380D01*
X25428571Y-61095238D01*
X25333333Y-61190476D01*
X25238095Y-61238095D01*
X94238095Y-61952380D02*
X94238095Y-60952380D01*
X94238095Y-61428571D02*
X94809523Y-61428571D01*
X94809523Y-61952380D02*
X94809523Y-60952380D01*
X95190476Y-60952380D02*
X95809523Y-60952380D01*
X95476190Y-61333333D01*
X95619047Y-61333333D01*
X95714285Y-61380952D01*
X95761904Y-61428571D01*
X95809523Y-61523809D01*
X95809523Y-61761904D01*
X95761904Y-61857142D01*
X95714285Y-61904761D01*
X95619047Y-61952380D01*
X95333333Y-61952380D01*
X95238095Y-61904761D01*
X95190476Y-61857142D01*
X94238095Y-111952380D02*
X94238095Y-110952380D01*
X94238095Y-111428571D02*
X94809523Y-111428571D01*
X94809523Y-111952380D02*
X94809523Y-110952380D01*
X95714285Y-111285714D02*
X95714285Y-111952380D01*
X95476190Y-110904761D02*
X95238095Y-111619047D01*
X95857142Y-111619047D01*
X24238095Y-111952380D02*
X24238095Y-110952380D01*
X24238095Y-111428571D02*
X24809523Y-111428571D01*
X24809523Y-111952380D02*
X24809523Y-110952380D01*
X25238095Y-111047619D02*
X25285714Y-111000000D01*
X25380952Y-110952380D01*
X25619047Y-110952380D01*
X25714285Y-111000000D01*
X25761904Y-111047619D01*
X25809523Y-111142857D01*
X25809523Y-111238095D01*
X25761904Y-111380952D01*
X25190476Y-111952380D01*
X25809523Y-111952380D01*
X21122380Y-80285714D02*
X21836666Y-80285714D01*
X21979523Y-80333333D01*
X22074761Y-80428571D01*
X22122380Y-80571428D01*
X22122380Y-80666666D01*
X22074761Y-79428571D02*
X22122380Y-79523809D01*
X22122380Y-79714285D01*
X22074761Y-79809523D01*
X21979523Y-79857142D01*
X21598571Y-79857142D01*
X21503333Y-79809523D01*
X21455714Y-79714285D01*
X21455714Y-79523809D01*
X21503333Y-79428571D01*
X21598571Y-79380952D01*
X21693809Y-79380952D01*
X21789047Y-79857142D01*
M02*
